Radio-Canada-Medium.ufo
<glyph name="numbersign" format="1">
  <advance width="779"/>
  <unicode hex="0023"/>
  <outline>
    <contour>
      <point x="59" y="171" type="line"/>
      <point x="662" y="171" type="line"/>
      <point x="662" y="282" type="line"/>
      <point x="59" y="282" type="line"/>
    </contour>
    <contour>
      <point x="113" y="0" type="line"/>
      <point x="233" y="0" type="line"/>
      <point x="401" y="690" type="line"/>
      <point x="281" y="690" type="line"/>
    </contour>
    <contour>
      <point x="118" y="408" type="line"/>
      <point x="720" y="408" type="line"/>
      <point x="720" y="519" type="line"/>
      <point x="118" y="519" type="line"/>
    </contour>
    <contour>
      <point x="378" y="0" type="line"/>
      <point x="498" y="0" type="line"/>
      <point x="666" y="690" type="line"/>
      <point x="546" y="690" type="line"/>
    </contour>
  </outline>
</glyph>
<glyph name="parenright" format="1">
  <advance width="313"/>
  <unicode hex="0029"/>
  <outline>
    <contour>
      <point x="-44" y="-195" type="curve"/>
      <point x="13" y="-249" type="line"/>
      <point x="155" y="-117"/>
      <point x="244" y="44"/>
      <point x="244" y="268" type="curve" smooth="yes"/>
      <point x="244" y="492"/>
      <point x="155" y="652"/>
      <point x="13" y="784" type="curve"/>
      <point x="-44" y="730" type="line"/>
      <point x="64" y="605"/>
      <point x="127" y="451"/>
      <point x="127" y="268" type="curve" smooth="yes"/>
      <point x="127" y="85"/>
      <point x="64" y="-70"/>
    </contour>
  </outline>
</glyph>
<glyph name="asterisk" format="1">
  <advance width="611"/>
  <unicode hex="002A"/>
  <outline>
    <contour>
      <point x="59" y="498" type="line"/>
      <point x="238" y="458" type="line"/>
      <point x="117" y="323" type="line"/>
      <point x="215" y="252" type="line"/>
      <point x="306" y="406" type="line"/>
      <point x="396" y="252" type="line"/>
      <point x="494" y="323" type="line"/>
      <point x="374" y="458" type="line"/>
      <point x="552" y="498" type="line"/>
      <point x="515" y="613" type="line"/>
      <point x="348" y="540" type="line"/>
      <point x="366" y="720" type="line"/>
      <point x="245" y="720" type="line"/>
      <point x="263" y="540" type="line"/>
      <point x="97" y="613" type="line"/>
    </contour>
  </outline>
</glyph>
<glyph name="plus" format="1">
  <advance width="600.0"/>
  <unicode hex="002B"/>
  <outline>
    <contour>
      <point x="66" y="234" type="line"/>
      <point x="534" y="234" type="line"/>
      <point x="534" y="346" type="line"/>
      <point x="66" y="346" type="line"/>
    </contour>
    <contour>
      <point x="242" y="59" type="line"/>
      <point x="358" y="59" type="line"/>
      <point x="358" y="521" type="line"/>
      <point x="242" y="521" type="line"/>
    </contour>
  </outline>
</glyph>
<glyph name="hyphen" format="1">
  <advance width="385"/>
  <unicode hex="002D"/>
  <outline>
    <contour>
      <point x="57" y="224" type="line"/>
      <point x="328" y="224" type="line"/>
      <point x="328" y="329" type="line"/>
      <point x="57" y="329" type="line"/>
    </contour>
  </outline>
</glyph>
<glyph name="zero" format="1">
  <advance width="600.0"/>
  <unicode hex="0030"/>
  <outline>
    <contour>
      <point x="30" y="345" type="curve" smooth="yes"/>
      <point x="30" y="106"/>
      <point x="152" y="-11"/>
      <point x="300" y="-11" type="curve" smooth="yes"/>
      <point x="448" y="-11"/>
      <point x="570" y="106"/>
      <point x="570" y="345" type="curve" smooth="yes"/>
      <point x="570" y="584"/>
      <point x="448" y="701"/>
      <point x="300" y="701" type="curve" smooth="yes"/>
      <point x="152" y="701"/>
      <point x="30" y="584"/>
    </contour>
    <contour>
      <point x="168" y="345" type="curve" smooth="yes"/>
      <point x="168" y="511"/>
      <point x="225" y="580"/>
      <point x="300" y="580" type="curve" smooth="yes"/>
      <point x="375" y="580"/>
      <point x="432" y="511"/>
      <point x="432" y="345" type="curve" smooth="yes"/>
      <point x="432" y="179"/>
      <point x="375" y="110"/>
      <point x="300" y="110" type="curve" smooth="yes"/>
      <point x="225" y="110"/>
      <point x="168" y="179"/>
    </contour>
  </outline>
</glyph>
<glyph name="four" format="1">
  <advance width="600.0"/>
  <unicode hex="0034"/>
  <outline>
    <contour>
      <point x="27" y="215" type="line"/>
      <point x="94" y="126" type="line"/>
      <point x="423" y="690" type="line"/>
      <point x="305" y="690" type="line"/>
    </contour>
    <contour>
      <point x="27" y="126" type="line"/>
      <point x="570" y="126" type="line"/>
      <point x="570" y="244" type="line"/>
      <point x="73" y="244" type="line"/>
      <point x="27" y="215" type="line"/>
    </contour>
    <contour>
      <point x="344" y="0" type="line"/>
      <point x="478" y="0" type="line"/>
      <point x="478" y="690" type="line"/>
      <point x="344" y="690" type="line"/>
    </contour>
  </outline>
</glyph>
<glyph name="semicolon" format="1">
  <advance width="256"/>
  <unicode hex="003B"/>
  <outline>
    <contour>
      <point x="59" y="-169" type="line"/>
      <point x="134" y="-169" type="line"/>
      <point x="184" y="-39" type="line" smooth="yes"/>
      <point x="200" y="4"/>
      <point x="209" y="30"/>
      <point x="209" y="64" type="curve" smooth="yes"/>
      <point x="209" y="115"/>
      <point x="176" y="149"/>
      <point x="128" y="149" type="curve" smooth="yes"/>
      <point x="81" y="149"/>
      <point x="46" y="115"/>
      <point x="46" y="69" type="curve" smooth="yes"/>
      <point x="46" y="28"/>
      <point x="70" y="2"/>
      <point x="100" y="-7" type="curve"/>
    </contour>
    <contour>
      <point x="47" y="452" type="curve" smooth="yes"/>
      <point x="47" y="407"/>
      <point x="81" y="372"/>
      <point x="128" y="372" type="curve" smooth="yes"/>
      <point x="176" y="372"/>
      <point x="209" y="407"/>
      <point x="209" y="452" type="curve" smooth="yes"/>
      <point x="209" y="498"/>
      <point x="176" y="532"/>
      <point x="128" y="532" type="curve" smooth="yes"/>
      <point x="81" y="532"/>
      <point x="47" y="498"/>
    </contour>
  </outline>
</glyph>
<glyph name="less" format="1">
  <advance width="600.0"/>
  <unicode hex="003C"/>
  <outline>
    <contour>
      <point x="70" y="238" type="line"/>
      <point x="505" y="45" type="line"/>
      <point x="505" y="175" type="line"/>
      <point x="168" y="313" type="line"/>
      <point x="70" y="314" type="line"/>
    </contour>
    <contour>
      <point x="70" y="270" type="line"/>
      <point x="168" y="270" type="line"/>
      <point x="505" y="406" type="line"/>
      <point x="505" y="532" type="line"/>
      <point x="70" y="340" type="line"/>
    </contour>
  </outline>
</glyph>
<glyph name="question" format="1">
  <advance width="514.0"/>
  <unicode hex="003F"/>
  <outline>
    <contour>
      <point x="165" y="69" type="curve" smooth="yes"/>
      <point x="165" y="24"/>
      <point x="198" y="-11"/>
      <point x="245" y="-11" type="curve" smooth="yes"/>
      <point x="293" y="-11"/>
      <point x="326" y="24"/>
      <point x="326" y="69" type="curve" smooth="yes"/>
      <point x="326" y="115"/>
      <point x="293" y="149"/>
      <point x="245" y="149" type="curve" smooth="yes"/>
      <point x="198" y="149"/>
      <point x="165" y="115"/>
    </contour>
    <contour>
      <point x="16" y="592" type="curve"/>
      <point x="94" y="499" type="line"/>
      <point x="136" y="552"/>
      <point x="177" y="577"/>
      <point x="232" y="577" type="curve"/>
      <point x="286" y="577"/>
      <point x="319" y="543"/>
      <point x="319" y="502" type="curve"/>
      <point x="319" y="469"/>
      <point x="298" y="439"/>
      <point x="238" y="398" type="curve" smooth="yes"/>
      <point x="201" y="373"/>
      <point x="184" y="339"/>
      <point x="188" y="289" type="curve" smooth="yes"/>
      <point x="193" y="231" type="line"/>
      <point x="296" y="231" type="line"/>
      <point x="299" y="267" type="line" smooth="yes"/>
      <point x="301" y="296"/>
      <point x="309" y="313"/>
      <point x="335" y="329" type="curve" smooth="yes"/>
      <point x="423" y="387"/>
      <point x="457" y="441"/>
      <point x="457" y="512" type="curve"/>
      <point x="457" y="625"/>
      <point x="367" y="701"/>
      <point x="245" y="701" type="curve"/>
      <point x="153" y="701"/>
      <point x="74" y="657"/>
    </contour>
  </outline>
</glyph>
<glyph name="B" format="1">
  <advance width="651"/>
  <unicode hex="0042"/>
  <outline>
    <contour>
      <point x="91" y="0" type="line"/>
      <point x="225" y="0" type="line"/>
      <point x="225" y="690" type="line"/>
      <point x="91" y="690" type="line"/>
    </contour>
    <contour>
      <point x="155" y="0" type="line"/>
      <point x="363" y="0" type="line" smooth="yes"/>
      <point x="494" y="0"/>
      <point x="597" y="70"/>
      <point x="597" y="192" type="curve" smooth="yes"/>
      <point x="597" y="312"/>
      <point x="498" y="385"/>
      <point x="363" y="385" type="curve" smooth="yes"/>
      <point x="155" y="385" type="line"/>
      <point x="155" y="298" type="line"/>
      <point x="352" y="298" type="line" smooth="yes"/>
      <point x="415" y="298"/>
      <point x="460" y="266"/>
      <point x="460" y="207" type="curve" smooth="yes"/>
      <point x="460" y="146"/>
      <point x="415" y="114"/>
      <point x="352" y="114" type="curve" smooth="yes"/>
      <point x="155" y="114" type="line"/>
    </contour>
    <contour>
      <point x="155" y="331" type="line"/>
      <point x="341" y="331" type="line"/>
      <point x="468" y="331"/>
      <point x="568" y="391"/>
      <point x="568" y="505" type="curve" smooth="yes"/>
      <point x="568" y="622"/>
      <point x="468" y="690"/>
      <point x="341" y="690" type="curve" smooth="yes"/>
      <point x="155" y="690" type="line"/>
      <point x="155" y="576" type="line"/>
      <point x="333" y="576" type="line" smooth="yes"/>
      <point x="392" y="576"/>
      <point x="434" y="545"/>
      <point x="434" y="490" type="curve" smooth="yes"/>
      <point x="434" y="435"/>
      <point x="392" y="406"/>
      <point x="333" y="406" type="curve" smooth="yes"/>
      <point x="155" y="406" type="line"/>
    </contour>
  </outline>
</glyph>
<glyph name="C" format="1">
  <advance width="649"/>
  <unicode hex="0043"/>
  <outline>
    <contour>
      <point x="51" y="345" type="curve" smooth="yes"/>
      <point x="51" y="120"/>
      <point x="203" y="-11"/>
      <point x="383" y="-11" type="curve" smooth="yes"/>
      <point x="472" y="-11"/>
      <point x="544" y="18"/>
      <point x="608" y="75" type="curve"/>
      <point x="527" y="175" type="line"/>
      <point x="486" y="137"/>
      <point x="436" y="115"/>
      <point x="379" y="115" type="curve" smooth="yes"/>
      <point x="272" y="115"/>
      <point x="188" y="193"/>
      <point x="188" y="345" type="curve" smooth="yes"/>
      <point x="188" y="497"/>
      <point x="272" y="575"/>
      <point x="378" y="575" type="curve" smooth="yes"/>
      <point x="433" y="575"/>
      <point x="481" y="554"/>
      <point x="523" y="520" type="curve"/>
      <point x="602" y="622" type="line"/>
      <point x="536" y="673"/>
      <point x="466" y="701"/>
      <point x="381" y="701" type="curve" smooth="yes"/>
      <point x="203" y="701"/>
      <point x="51" y="570"/>
    </contour>
    <contour>
      <point x="371" y="690" type="move" name="top"/>
    </contour>
    <contour>
      <point x="371" y="0" type="move" name="bottom"/>
    </contour>
  </outline>
</glyph>
<glyph name="E" format="1">
  <advance width="629"/>
  <unicode hex="0045"/>
  <outline>
    <contour>
      <point x="91" y="0" type="line"/>
      <point x="225" y="0" type="line"/>
      <point x="225" y="690" type="line"/>
      <point x="91" y="690" type="line"/>
    </contour>
    <contour>
      <point x="155" y="0" type="line"/>
      <point x="565" y="0" type="line"/>
      <point x="565" y="118" type="line"/>
      <point x="155" y="118" type="line"/>
    </contour>
    <contour>
      <point x="155" y="292" type="line"/>
      <point x="512" y="292" type="line"/>
      <point x="512" y="406" type="line"/>
      <point x="155" y="406" type="line"/>
    </contour>
    <contour>
      <point x="155" y="572" type="line"/>
      <point x="560" y="572" type="line"/>
      <point x="560" y="690" type="line"/>
      <point x="155" y="690" type="line"/>
    </contour>
    <contour>
      <point x="325" y="690" type="move" name="top"/>
    </contour>
    <contour>
      <point x="461" y="0" type="move" name="ogonek"/>
    </contour>
    <contour>
      <point x="325" y="0" type="move" name="bottom"/>
    </contour>
  </outline>
</glyph>
<glyph name="F" format="1">
  <advance width="585"/>
  <unicode hex="0046"/>
  <outline>
    <contour>
      <point x="91" y="0" type="line"/>
      <point x="225" y="0" type="line"/>
      <point x="225" y="690" type="line"/>
      <point x="91" y="690" type="line"/>
    </contour>
    <contour>
      <point x="155" y="262" type="line"/>
      <point x="506" y="262" type="line"/>
      <point x="506" y="380" type="line"/>
      <point x="155" y="380" type="line"/>
    </contour>
    <contour>
      <point x="155" y="572" type="line"/>
      <point x="545" y="572" type="line"/>
      <point x="545" y="690" type="line"/>
      <point x="155" y="690" type="line"/>
    </contour>
  </outline>
</glyph>
<glyph name="G" format="1">
  <advance width="702"/>
  <unicode hex="0047"/>
  <outline>
    <contour>
      <point x="51" y="345" type="curve" smooth="yes"/>
      <point x="51" y="120"/>
      <point x="202" y="-11"/>
      <point x="381" y="-11" type="curve" smooth="yes"/>
      <point x="477" y="-11"/>
      <point x="561" y="23"/>
      <point x="634" y="81" type="curve"/>
      <point x="510" y="140" type="line"/>
      <point x="471" y="117"/>
      <point x="429" y="107"/>
      <point x="390" y="107" type="curve" smooth="yes"/>
      <point x="274" y="107"/>
      <point x="188" y="193"/>
      <point x="188" y="345" type="curve" smooth="yes"/>
      <point x="188" y="497"/>
      <point x="275" y="576"/>
      <point x="388" y="576" type="curve" smooth="yes"/>
      <point x="446" y="576"/>
      <point x="497" y="555"/>
      <point x="543" y="518" type="curve"/>
      <point x="614" y="628" type="line"/>
      <point x="543" y="677"/>
      <point x="470" y="701"/>
      <point x="385" y="701" type="curve" smooth="yes"/>
      <point x="205" y="701"/>
      <point x="51" y="570"/>
    </contour>
    <contour>
      <point x="365" y="252" type="line"/>
      <point x="573" y="252" type="line"/>
      <point x="573" y="366" type="line"/>
      <point x="365" y="366" type="line"/>
    </contour>
    <contour>
      <point x="503" y="70" type="line"/>
      <point x="634" y="81" type="line"/>
      <point x="634" y="366" type="line"/>
      <point x="503" y="366" type="line"/>
    </contour>
    <contour>
      <point x="371" y="690" type="move" name="top"/>
    </contour>
    <contour>
      <point x="377" y="0" type="move" name="bottom"/>
    </contour>
  </outline>
</glyph>
<glyph name="J" format="1">
  <advance width="571"/>
  <unicode hex="004A"/>
  <outline>
    <contour>
      <point x="27" y="87" type="line"/>
      <point x="75" y="28"/>
      <point x="149" y="-11"/>
      <point x="236" y="-11" type="curve" smooth="yes"/>
      <point x="376" y="-11"/>
      <point x="490" y="78"/>
      <point x="490" y="241" type="curve" smooth="yes"/>
      <point x="490" y="690" type="line"/>
      <point x="356" y="690" type="line"/>
      <point x="356" y="257" type="line" smooth="yes"/>
      <point x="356" y="158"/>
      <point x="309" y="110"/>
      <point x="232" y="110" type="curve" smooth="yes"/>
      <point x="179" y="110"/>
      <point x="136" y="140"/>
      <point x="113" y="177" type="curve"/>
    </contour>
    <contour>
      <point x="185" y="586" type="line"/>
      <point x="441" y="586" type="line"/>
      <point x="441" y="690" type="line"/>
      <point x="185" y="690" type="line"/>
    </contour>
    <contour>
      <point x="337" y="690" type="move" name="top"/>
    </contour>
  </outline>
</glyph>
<glyph name="K" format="1">
  <advance width="661"/>
  <unicode hex="004B"/>
  <outline>
    <contour>
      <point x="91" y="0" type="line"/>
      <point x="225" y="0" type="line"/>
      <point x="225" y="690" type="line"/>
      <point x="91" y="690" type="line"/>
    </contour>
    <contour>
      <point x="185" y="160" type="line"/>
      <point x="326" y="324" type="line"/>
      <point x="341" y="342" type="line"/>
      <point x="640" y="690" type="line"/>
      <point x="473" y="690" type="line"/>
      <point x="185" y="331" type="line"/>
    </contour>
    <contour>
      <point x="285" y="308" type="line"/>
      <point x="491" y="0" type="line"/>
      <point x="655" y="0" type="line"/>
      <point x="371" y="406" type="line"/>
    </contour>
    <contour>
      <point x="352" y="0" type="move" name="bottom"/>
    </contour>
  </outline>
</glyph>
<glyph name="L" format="1">
  <advance width="576"/>
  <unicode hex="004C"/>
  <outline>
    <contour>
      <point x="91" y="0" type="line"/>
      <point x="225" y="0" type="line"/>
      <point x="225" y="690" type="line"/>
      <point x="91" y="690" type="line"/>
    </contour>
    <contour>
      <point x="155" y="0" type="line"/>
      <point x="539" y="0" type="line"/>
      <point x="539" y="118" type="line"/>
      <point x="155" y="118" type="line"/>
    </contour>
    <contour>
      <point x="158" y="690" type="move" name="top"/>
    </contour>
    <contour>
      <point x="364" y="680" type="move" name="caron.alt"/>
    </contour>
    <contour>
      <point x="304" y="0" type="move" name="bottom"/>
    </contour>
  </outline>
</glyph>
<glyph name="N" format="1">
  <advance width="754"/>
  <unicode hex="004E"/>
  <outline>
    <contour>
      <point x="91" y="0" type="line"/>
      <point x="216" y="0" type="line"/>
      <point x="216" y="690" type="line"/>
      <point x="91" y="690" type="line"/>
    </contour>
    <contour>
      <point x="142" y="690" type="line"/>
      <point x="488" y="0" type="line"/>
      <point x="618" y="0" type="line"/>
      <point x="272" y="690" type="line"/>
    </contour>
    <contour>
      <point x="538" y="0" type="line"/>
      <point x="663" y="0" type="line"/>
      <point x="663" y="690" type="line"/>
      <point x="538" y="690" type="line"/>
    </contour>
    <contour>
      <point x="394" y="690" type="move" name="top"/>
    </contour>
    <contour>
      <point x="365" y="0" type="move" name="bottom"/>
    </contour>
  </outline>
</glyph>
<glyph name="O" format="1">
  <advance width="737"/>
  <unicode hex="004F"/>
  <outline>
    <contour>
      <point x="51" y="345" type="curve" smooth="yes"/>
      <point x="51" y="118"/>
      <point x="194" y="-11"/>
      <point x="368" y="-11" type="curve" smooth="yes"/>
      <point x="543" y="-11"/>
      <point x="686" y="118"/>
      <point x="686" y="345" type="curve" smooth="yes"/>
      <point x="686" y="572"/>
      <point x="543" y="701"/>
      <point x="368" y="701" type="curve" smooth="yes"/>
      <point x="194" y="701"/>
      <point x="51" y="572"/>
    </contour>
    <contour>
      <point x="188" y="345" type="curve" smooth="yes"/>
      <point x="188" y="502"/>
      <point x="265" y="580"/>
      <point x="368" y="580" type="curve" smooth="yes"/>
      <point x="472" y="580"/>
      <point x="548" y="502"/>
      <point x="548" y="345" type="curve" smooth="yes"/>
      <point x="548" y="188"/>
      <point x="472" y="110"/>
      <point x="368" y="110" type="curve" smooth="yes"/>
      <point x="265" y="110"/>
      <point x="188" y="188"/>
    </contour>
    <contour>
      <point x="368" y="690" type="move" name="top"/>
    </contour>
    <contour>
      <point x="394" y="0" type="move" name="ogonek"/>
    </contour>
    <contour>
      <point x="368" y="0" type="move" name="bottom"/>
    </contour>
  </outline>
</glyph>
<glyph name="P" format="1">
  <advance width="645"/>
  <unicode hex="0050"/>
  <outline>
    <contour>
      <point x="91" y="0" type="line"/>
      <point x="225" y="0" type="line"/>
      <point x="225" y="690" type="line"/>
      <point x="91" y="690" type="line"/>
    </contour>
    <contour>
      <point x="155" y="206" type="line"/>
      <point x="333" y="206" type="line" smooth="yes"/>
      <point x="483" y="206"/>
      <point x="601" y="294"/>
      <point x="601" y="448" type="curve" smooth="yes"/>
      <point x="601" y="602"/>
      <point x="483" y="690"/>
      <point x="333" y="690" type="curve" smooth="yes"/>
      <point x="155" y="690" type="line"/>
      <point x="155" y="572" type="line"/>
      <point x="322" y="572" type="line" smooth="yes"/>
      <point x="405" y="572"/>
      <point x="464" y="530"/>
      <point x="464" y="448" type="curve" smooth="yes"/>
      <point x="464" y="366"/>
      <point x="405" y="324"/>
      <point x="322" y="324" type="curve" smooth="yes"/>
      <point x="155" y="324" type="line"/>
    </contour>
  </outline>
</glyph>
<glyph name="S" format="1">
  <advance width="632"/>
  <unicode hex="0053"/>
  <outline>
    <contour>
      <point x="41" y="82" type="line"/>
      <point x="117" y="25"/>
      <point x="217" y="-11"/>
      <point x="313" y="-11" type="curve" smooth="yes"/>
      <point x="492" y="-11"/>
      <point x="583" y="81"/>
      <point x="583" y="190" type="curve" smooth="yes"/>
      <point x="583" y="286"/>
      <point x="518" y="360"/>
      <point x="346" y="417" type="curve" smooth="yes"/>
      <point x="240" y="451"/>
      <point x="208" y="480"/>
      <point x="208" y="517" type="curve" smooth="yes"/>
      <point x="208" y="553"/>
      <point x="244" y="586"/>
      <point x="313" y="586" type="curve" smooth="yes"/>
      <point x="383" y="586"/>
      <point x="448" y="559"/>
      <point x="501" y="516" type="curve"/>
      <point x="565" y="621" type="line"/>
      <point x="503" y="669"/>
      <point x="410" y="701"/>
      <point x="324" y="701" type="curve" smooth="yes"/>
      <point x="165" y="701"/>
      <point x="74" y="612"/>
      <point x="74" y="505" type="curve" smooth="yes"/>
      <point x="74" y="416"/>
      <point x="133" y="344"/>
      <point x="300" y="289" type="curve" smooth="yes"/>
      <point x="416" y="251"/>
      <point x="445" y="217"/>
      <point x="445" y="179" type="curve" smooth="yes"/>
      <point x="445" y="139"/>
      <point x="403" y="106"/>
      <point x="327" y="106" type="curve" smooth="yes"/>
      <point x="247" y="106"/>
      <point x="168" y="139"/>
      <point x="109" y="189" type="curve"/>
    </contour>
    <contour>
      <point x="324" y="690" type="move" name="top"/>
    </contour>
    <contour>
      <point x="313" y="0" type="move" name="bottom"/>
    </contour>
  </outline>
</glyph>
<glyph name="U" format="1">
  <advance width="717"/>
  <unicode hex="0055"/>
  <outline>
    <contour>
      <point x="81" y="265" type="line" smooth="yes"/>
      <point x="81" y="88"/>
      <point x="202" y="-11"/>
      <point x="358" y="-11" type="curve" smooth="yes"/>
      <point x="515" y="-11"/>
      <point x="636" y="88"/>
      <point x="636" y="265" type="curve" smooth="yes"/>
      <point x="636" y="690" type="line"/>
      <point x="505" y="690" type="line"/>
      <point x="505" y="281" type="line" smooth="yes"/>
      <point x="505" y="166"/>
      <point x="445" y="110"/>
      <point x="360" y="110" type="curve" smooth="yes"/>
      <point x="275" y="110"/>
      <point x="215" y="166"/>
      <point x="215" y="281" type="curve" smooth="yes"/>
      <point x="215" y="690" type="line"/>
      <point x="81" y="690" type="line"/>
    </contour>
    <contour>
      <point x="360" y="690" type="move" name="top"/>
    </contour>
    <contour>
      <point x="386" y="0" type="move" name="ogonek"/>
    </contour>
    <contour>
      <point x="358" y="0" type="move" name="bottom"/>
    </contour>
  </outline>
</glyph>
<glyph name="V" format="1">
  <advance width="648.0"/>
  <unicode hex="0056"/>
  <outline>
    <contour>
      <point x="8" y="690" type="line"/>
      <point x="261" y="0" type="line"/>
      <point x="341" y="0" type="line"/>
      <point x="343" y="130" type="line"/>
      <point x="152" y="690" type="line"/>
    </contour>
    <contour>
      <point x="309" y="130" type="line"/>
      <point x="314" y="0" type="line"/>
      <point x="387" y="0" type="line"/>
      <point x="640" y="690" type="line"/>
      <point x="500" y="690" type="line"/>
    </contour>
  </outline>
</glyph>
<glyph name="Y" format="1">
  <advance width="640.0"/>
  <unicode hex="0059"/>
  <outline>
    <contour>
      <point x="6" y="690" type="line"/>
      <point x="264" y="264" type="line"/>
      <point x="337" y="264" type="line"/>
      <point x="340" y="375" type="line"/>
      <point x="160" y="690" type="line"/>
    </contour>
    <contour>
      <point x="253" y="0" type="line"/>
      <point x="387" y="0" type="line"/>
      <point x="387" y="302" type="line"/>
      <point x="253" y="302" type="line"/>
    </contour>
    <contour>
      <point x="304" y="375" type="line"/>
      <point x="309" y="264" type="line"/>
      <point x="376" y="264" type="line"/>
      <point x="634" y="690" type="line"/>
      <point x="484" y="690" type="line"/>
    </contour>
    <contour>
      <point x="321" y="690" type="move" name="top"/>
    </contour>
  </outline>
</glyph>
<glyph name="bracketleft" format="1">
  <advance width="320.0"/>
  <unicode hex="005B"/>
  <outline>
    <contour>
      <point x="91" y="-275" type="line"/>
      <point x="208" y="-275" type="line"/>
      <point x="208" y="810" type="line"/>
      <point x="91" y="810" type="line"/>
    </contour>
    <contour>
      <point x="91" y="-275" type="line"/>
      <point x="360" y="-275" type="line"/>
      <point x="360" y="-175" type="line"/>
      <point x="91" y="-175" type="line"/>
    </contour>
    <contour>
      <point x="91" y="710" type="line"/>
      <point x="360" y="710" type="line"/>
      <point x="360" y="810" type="line"/>
      <point x="91" y="810" type="line"/>
    </contour>
  </outline>
</glyph>
<glyph name="underscore" format="1">
  <advance width="445"/>
  <unicode hex="005F"/>
  <outline>
    <contour>
      <point x="0" y="-105" type="line"/>
      <point x="445" y="-105" type="line"/>
      <point x="445" y="0" type="line"/>
      <point x="0" y="0" type="line"/>
    </contour>
  </outline>
</glyph>
<glyph name="grave" format="1">
  <advance width="600.0"/>
  <unicode hex="0060"/>
  <outline>
    <contour>
      <point x="127" y="746" type="line"/>
      <point x="255" y="596" type="line"/>
      <point x="358" y="596" type="line"/>
      <point x="274" y="746" type="line"/>
    </contour>
    <contour>
      <point x="300" y="521" type="move" name="_top"/>
    </contour>
  </outline>
</glyph>
<glyph name="a" format="1">
  <advance width="551"/>
  <unicode hex="0061"/>
  <outline>
    <contour>
      <point x="45" y="136" type="curve"/>
      <point x="45" y="46"/>
      <point x="114" y="-11"/>
      <point x="195" y="-11" type="curve"/>
      <point x="266" y="-11"/>
      <point x="329" y="27"/>
      <point x="364" y="81" type="curve"/>
      <point x="364" y="161" type="line"/>
      <point x="326" y="117"/>
      <point x="277" y="90"/>
      <point x="227" y="90" type="curve"/>
      <point x="189" y="90"/>
      <point x="164" y="111"/>
      <point x="164" y="149" type="curve"/>
      <point x="164" y="187"/>
      <point x="195" y="223"/>
      <point x="300" y="230" type="curve" smooth="yes"/>
      <point x="372" y="235" type="line"/>
      <point x="372" y="312" type="line"/>
      <point x="292" y="310" type="line" smooth="yes"/>
      <point x="118" y="304"/>
      <point x="45" y="229"/>
    </contour>
    <contour>
      <point x="61" y="485" type="curve"/>
      <point x="98" y="383" type="line"/>
      <point x="139" y="404"/>
      <point x="186" y="422"/>
      <point x="241" y="422" type="curve"/>
      <point x="312" y="422"/>
      <point x="349" y="387"/>
      <point x="349" y="316" type="curve" smooth="yes"/>
      <point x="349" y="100" type="line"/>
      <point x="368" y="0" type="line"/>
      <point x="490" y="0" type="line"/>
      <point x="482" y="47" type="line" smooth="yes"/>
      <point x="477" y="76"/>
      <point x="475" y="96"/>
      <point x="475" y="124" type="curve" smooth="yes"/>
      <point x="475" y="326" type="line" smooth="yes"/>
      <point x="475" y="462"/>
      <point x="385" y="532"/>
      <point x="259" y="532" type="curve"/>
      <point x="186" y="532"/>
      <point x="111" y="510"/>
    </contour>
    <contour>
      <point x="264" y="521" type="move" name="top"/>
    </contour>
    <contour>
      <point x="368" y="0" type="move" name="ogonek"/>
    </contour>
    <contour>
      <point x="264" y="0" type="move" name="bottom"/>
    </contour>
  </outline>
</glyph>
<glyph name="b" format="1">
  <advance width="600"/>
  <unicode hex="0062"/>
  <outline>
    <contour>
      <point x="66" y="0" type="line"/>
      <point x="188" y="0" type="line"/>
      <point x="208" y="100" type="line"/>
      <point x="208" y="735" type="line"/>
      <point x="81" y="715" type="line"/>
      <point x="81" y="124" type="line"/>
      <point x="81" y="96"/>
      <point x="79" y="76"/>
      <point x="74" y="47" type="curve" smooth="yes"/>
    </contour>
    <contour>
      <point x="161" y="222" type="line"/>
      <point x="161" y="65"/>
      <point x="241" y="-11"/>
      <point x="338" y="-11" type="curve"/>
      <point x="465" y="-11"/>
      <point x="556" y="87"/>
      <point x="556" y="261" type="curve" smooth="yes"/>
      <point x="556" y="428"/>
      <point x="466" y="532"/>
      <point x="361" y="532" type="curve" smooth="yes"/>
      <point x="292" y="532"/>
      <point x="234" y="493"/>
      <point x="193" y="437" type="curve"/>
      <point x="193" y="352" type="line"/>
      <point x="229" y="392"/>
      <point x="277" y="417"/>
      <point x="321" y="417" type="curve" smooth="yes"/>
      <point x="383" y="417"/>
      <point x="428" y="362"/>
      <point x="428" y="255" type="curve" smooth="yes"/>
      <point x="428" y="154"/>
      <point x="379" y="90"/>
      <point x="308" y="90" type="curve"/>
      <point x="252" y="90"/>
      <point x="208" y="133"/>
      <point x="208" y="229" type="curve"/>
    </contour>
  </outline>
</glyph>
<glyph name="c" format="1">
  <advance width="500"/>
  <unicode hex="0063"/>
  <outline>
    <contour>
      <point x="45" y="252" type="curve" smooth="yes"/>
      <point x="45" y="85"/>
      <point x="150" y="-11"/>
      <point x="300" y="-11" type="curve" smooth="yes"/>
      <point x="368" y="-11"/>
      <point x="428" y="9"/>
      <point x="471" y="40" type="curve"/>
      <point x="417" y="138" type="line"/>
      <point x="391" y="117"/>
      <point x="353" y="102"/>
      <point x="311" y="102" type="curve" smooth="yes"/>
      <point x="234" y="102"/>
      <point x="174" y="153"/>
      <point x="174" y="255" type="curve" smooth="yes"/>
      <point x="174" y="365"/>
      <point x="235" y="421"/>
      <point x="310" y="421" type="curve" smooth="yes"/>
      <point x="351" y="421"/>
      <point x="388" y="406"/>
      <point x="413" y="383" type="curve"/>
      <point x="468" y="481" type="line"/>
      <point x="425" y="512"/>
      <point x="369" y="532"/>
      <point x="309" y="532" type="curve" smooth="yes"/>
      <point x="157" y="532"/>
      <point x="45" y="424"/>
    </contour>
    <contour>
      <point x="295" y="521" type="move" name="top"/>
    </contour>
    <contour>
      <point x="288" y="0" type="move" name="bottom"/>
    </contour>
  </outline>
</glyph>
<glyph name="g" format="1">
  <advance width="600"/>
  <unicode hex="0067"/>
  <outline>
    <contour>
      <point x="45" y="273" type="curve" smooth="yes"/>
      <point x="45" y="117"/>
      <point x="131" y="22"/>
      <point x="243" y="22" type="curve" smooth="yes"/>
      <point x="306" y="22"/>
      <point x="366" y="53"/>
      <point x="408" y="108" type="curve"/>
      <point x="408" y="191" type="line"/>
      <point x="371" y="155"/>
      <point x="324" y="135"/>
      <point x="280" y="135" type="curve" smooth="yes"/>
      <point x="217" y="135"/>
      <point x="172" y="184"/>
      <point x="172" y="279" type="curve" smooth="yes"/>
      <point x="172" y="372"/>
      <point x="221" y="431"/>
      <point x="293" y="431" type="curve" smooth="yes"/>
      <point x="348" y="431"/>
      <point x="393" y="388"/>
      <point x="393" y="292" type="curve"/>
      <point x="440" y="299" type="line"/>
      <point x="440" y="456"/>
      <point x="359" y="532"/>
      <point x="260" y="532" type="curve" smooth="yes"/>
      <point x="135" y="532"/>
      <point x="45" y="438"/>
    </contour>
    <contour>
      <point x="74" y="-152" type="line"/>
      <point x="122" y="-176"/>
      <point x="188" y="-196"/>
      <point x="261" y="-196" type="curve"/>
      <point x="409" y="-196"/>
      <point x="519" y="-101"/>
      <point x="519" y="63" type="curve" smooth="yes"/>
      <point x="519" y="397" type="line"/>
      <point x="519" y="425"/>
      <point x="521" y="445"/>
      <point x="526" y="474" type="curve" smooth="yes"/>
      <point x="534" y="521" type="line"/>
      <point x="412" y="521" type="line"/>
      <point x="393" y="421" type="line"/>
      <point x="393" y="63" type="line" smooth="yes"/>
      <point x="393" y="-39"/>
      <point x="339" y="-84"/>
      <point x="253" y="-84" type="curve"/>
      <point x="198" y="-84"/>
      <point x="151" y="-68"/>
      <point x="108" y="-45" type="curve"/>
    </contour>
    <contour>
      <point x="286" y="515" type="move" name="top"/>
    </contour>
  </outline>
</glyph>
<glyph name="i" format="1">
  <advance width="289"/>
  <unicode hex="0069"/>
  <outline>
    <contour>
      <point x="81" y="0" type="line"/>
      <point x="208" y="0" type="line"/>
      <point x="208" y="521" type="line"/>
      <point x="81" y="521" type="line"/>
    </contour>
    <contour>
      <point x="68" y="672" type="curve" smooth="yes"/>
      <point x="68" y="630"/>
      <point x="100" y="596"/>
      <point x="144" y="596" type="curve" smooth="yes"/>
      <point x="190" y="596"/>
      <point x="220" y="630"/>
      <point x="220" y="672" type="curve" smooth="yes"/>
      <point x="220" y="715"/>
      <point x="190" y="749"/>
      <point x="144" y="749" type="curve" smooth="yes"/>
      <point x="100" y="749"/>
      <point x="68" y="715"/>
    </contour>
    <contour>
      <point x="81" y="0" type="move" name="ogonek"/>
    </contour>
    <contour>
      <point x="144" y="0" type="move" name="bottom"/>
    </contour>
  </outline>
</glyph>
<glyph name="l" format="1">
  <advance width="289"/>
  <unicode hex="006C"/>
  <outline>
    <contour>
      <point x="81" y="0" type="line"/>
      <point x="208" y="0" type="line"/>
      <point x="208" y="735" type="line"/>
      <point x="81" y="715" type="line"/>
    </contour>
    <contour>
      <point x="144" y="720" type="move" name="top"/>
    </contour>
    <contour>
      <point x="289" y="720" type="move" name="caron.alt"/>
    </contour>
    <contour>
      <point x="144" y="0" type="move" name="bottom"/>
    </contour>
  </outline>
</glyph>
<glyph name="m" format="1">
  <advance width="913"/>
  <unicode hex="006D"/>
  <outline>
    <contour>
      <point x="66" y="521" type="line"/>
      <point x="74" y="474" type="line" smooth="yes"/>
      <point x="79" y="445"/>
      <point x="81" y="425"/>
      <point x="81" y="397" type="curve" smooth="yes"/>
      <point x="81" y="0" type="line"/>
      <point x="208" y="0" type="line"/>
      <point x="208" y="421" type="line"/>
      <point x="188" y="521" type="line"/>
    </contour>
    <contour>
      <point x="193" y="349" type="line"/>
      <point x="226" y="391"/>
      <point x="269" y="415"/>
      <point x="310" y="415" type="curve"/>
      <point x="360" y="415"/>
      <point x="396" y="384"/>
      <point x="396" y="310" type="curve" smooth="yes"/>
      <point x="396" y="0" type="line"/>
      <point x="523" y="0" type="line"/>
      <point x="523" y="329" type="line" smooth="yes"/>
      <point x="523" y="467"/>
      <point x="447" y="532"/>
      <point x="357" y="532" type="curve" smooth="yes"/>
      <point x="290" y="532"/>
      <point x="232" y="493"/>
      <point x="193" y="437" type="curve"/>
    </contour>
    <contour>
      <point x="496" y="435" type="curve"/>
      <point x="508" y="349" type="line"/>
      <point x="540" y="391"/>
      <point x="584" y="415"/>
      <point x="625" y="415" type="curve"/>
      <point x="675" y="415"/>
      <point x="711" y="384"/>
      <point x="711" y="310" type="curve" smooth="yes"/>
      <point x="711" y="0" type="line"/>
      <point x="837" y="0" type="line"/>
      <point x="837" y="329" type="line" smooth="yes"/>
      <point x="837" y="467"/>
      <point x="760" y="532"/>
      <point x="669" y="532" type="curve" smooth="yes"/>
      <point x="597" y="532"/>
      <point x="536" y="492"/>
    </contour>
  </outline>
</glyph>
<glyph name="o" format="1">
  <advance width="584.0"/>
  <unicode hex="006F"/>
  <outline>
    <contour>
      <point x="45" y="260" type="curve" smooth="yes"/>
      <point x="45" y="89"/>
      <point x="148" y="-11"/>
      <point x="292" y="-11" type="curve" smooth="yes"/>
      <point x="436" y="-11"/>
      <point x="539" y="89"/>
      <point x="539" y="260" type="curve" smooth="yes"/>
      <point x="539" y="431"/>
      <point x="436" y="532"/>
      <point x="292" y="532" type="curve" smooth="yes"/>
      <point x="148" y="532"/>
      <point x="45" y="431"/>
    </contour>
    <contour>
      <point x="174" y="260" type="curve" smooth="yes"/>
      <point x="174" y="372"/>
      <point x="219" y="427"/>
      <point x="292" y="427" type="curve" smooth="yes"/>
      <point x="365" y="427"/>
      <point x="410" y="372"/>
      <point x="410" y="260" type="curve" smooth="yes"/>
      <point x="410" y="148"/>
      <point x="365" y="94"/>
      <point x="292" y="94" type="curve" smooth="yes"/>
      <point x="219" y="94"/>
      <point x="174" y="148"/>
    </contour>
    <contour>
      <point x="292" y="521" type="move" name="top"/>
    </contour>
    <contour>
      <point x="306" y="0" type="move" name="ogonek"/>
    </contour>
    <contour>
      <point x="292" y="0" type="move" name="bottom"/>
    </contour>
  </outline>
</glyph>
<glyph name="q" format="1">
  <advance width="600"/>
  <unicode hex="0071"/>
  <outline>
    <contour>
      <point x="45" y="260" type="curve" smooth="yes"/>
      <point x="45" y="93"/>
      <point x="134" y="-11"/>
      <point x="240" y="-11" type="curve" smooth="yes"/>
      <point x="308" y="-11"/>
      <point x="366" y="28"/>
      <point x="408" y="84" type="curve"/>
      <point x="408" y="169" type="line"/>
      <point x="371" y="129"/>
      <point x="324" y="104"/>
      <point x="280" y="104" type="curve" smooth="yes"/>
      <point x="217" y="104"/>
      <point x="172" y="159"/>
      <point x="172" y="266" type="curve" smooth="yes"/>
      <point x="172" y="367"/>
      <point x="221" y="431"/>
      <point x="293" y="431" type="curve"/>
      <point x="348" y="431"/>
      <point x="393" y="388"/>
      <point x="393" y="292" type="curve"/>
      <point x="440" y="299" type="line"/>
      <point x="440" y="456"/>
      <point x="359" y="532"/>
      <point x="263" y="532" type="curve"/>
      <point x="135" y="532"/>
      <point x="45" y="434"/>
    </contour>
    <contour>
      <point x="393" y="-200" type="line"/>
      <point x="519" y="-180" type="line"/>
      <point x="519" y="397" type="line" smooth="yes"/>
      <point x="519" y="425"/>
      <point x="521" y="445"/>
      <point x="526" y="474" type="curve" smooth="yes"/>
      <point x="534" y="521" type="line"/>
      <point x="412" y="521" type="line"/>
      <point x="393" y="421" type="line"/>
    </contour>
  </outline>
</glyph>
<glyph name="s" format="1">
  <advance width="491"/>
  <unicode hex="0073"/>
  <outline>
    <contour>
      <point x="35" y="45" type="line"/>
      <point x="84" y="12"/>
      <point x="154" y="-11"/>
      <point x="231" y="-11" type="curve" smooth="yes"/>
      <point x="363" y="-11"/>
      <point x="450" y="55"/>
      <point x="450" y="148" type="curve" smooth="yes"/>
      <point x="450" y="226"/>
      <point x="403" y="278"/>
      <point x="270" y="322" type="curve" smooth="yes"/>
      <point x="198" y="345"/>
      <point x="178" y="359"/>
      <point x="178" y="386" type="curve" smooth="yes"/>
      <point x="178" y="411"/>
      <point x="202" y="429"/>
      <point x="251" y="429" type="curve" smooth="yes"/>
      <point x="296" y="429"/>
      <point x="348" y="411"/>
      <point x="384" y="388" type="curve"/>
      <point x="434" y="484" type="line"/>
      <point x="385" y="513"/>
      <point x="321" y="532"/>
      <point x="259" y="532" type="curve" smooth="yes"/>
      <point x="133" y="532"/>
      <point x="55" y="464"/>
      <point x="55" y="375" type="curve" smooth="yes"/>
      <point x="55" y="299"/>
      <point x="102" y="246"/>
      <point x="231" y="204" type="curve" smooth="yes"/>
      <point x="298" y="182"/>
      <point x="319" y="164"/>
      <point x="319" y="138" type="curve" smooth="yes"/>
      <point x="319" y="111"/>
      <point x="296" y="92"/>
      <point x="239" y="92" type="curve" smooth="yes"/>
      <point x="181" y="92"/>
      <point x="127" y="114"/>
      <point x="87" y="142" type="curve"/>
    </contour>
    <contour>
      <point x="259" y="521" type="move" name="top"/>
    </contour>
    <contour>
      <point x="231" y="0" type="move" name="bottom"/>
    </contour>
  </outline>
</glyph>
<glyph name="v" format="1">
  <advance width="516"/>
  <unicode hex="0076"/>
  <outline>
    <contour>
      <point x="4" y="521" type="line"/>
      <point x="202" y="0" type="line"/>
      <point x="282" y="0" type="line"/>
      <point x="282" y="102" type="line"/>
      <point x="141" y="521" type="line"/>
    </contour>
    <contour>
      <point x="240" y="102" type="line"/>
      <point x="241" y="0" type="line"/>
      <point x="314" y="0" type="line"/>
      <point x="512" y="521" type="line"/>
      <point x="380" y="521" type="line"/>
    </contour>
  </outline>
</glyph>
<glyph name="y" format="1">
  <advance width="516"/>
  <unicode hex="0079"/>
  <outline>
    <contour>
      <point x="4" y="521" type="line"/>
      <point x="207" y="0" type="line"/>
      <point x="284" y="0" type="line"/>
      <point x="283" y="102" type="line"/>
      <point x="142" y="521" type="line"/>
    </contour>
    <contour>
      <point x="21" y="-182" type="line"/>
      <point x="43" y="-190"/>
      <point x="71" y="-196"/>
      <point x="97" y="-196" type="curve"/>
      <point x="196" y="-196"/>
      <point x="256" y="-137"/>
      <point x="305" y="-10" type="curve" smooth="yes"/>
      <point x="512" y="521" type="line"/>
      <point x="378" y="521" type="line"/>
      <point x="239" y="102" type="line"/>
      <point x="207" y="37" type="line"/>
      <point x="166" y="-67"/>
      <point x="133" y="-87"/>
      <point x="86" y="-87" type="curve"/>
      <point x="68" y="-87"/>
      <point x="53" y="-85"/>
      <point x="36" y="-79" type="curve"/>
    </contour>
    <contour>
      <point x="261" y="521" type="move" name="top"/>
    </contour>
  </outline>
</glyph>
<glyph name="currency" format="1">
  <advance width="600.0"/>
  <unicode hex="00A4"/>
  <outline>
    <contour>
      <point x="77" y="345" type="curve" smooth="yes"/>
      <point x="77" y="194"/>
      <point x="170" y="107"/>
      <point x="300" y="107" type="curve" smooth="yes"/>
      <point x="430" y="107"/>
      <point x="523" y="194"/>
      <point x="523" y="345" type="curve" smooth="yes"/>
      <point x="523" y="496"/>
      <point x="430" y="583"/>
      <point x="300" y="583" type="curve" smooth="yes"/>
      <point x="170" y="583"/>
      <point x="77" y="496"/>
    </contour>
    <contour>
      <point x="193" y="345" type="curve" smooth="yes"/>
      <point x="193" y="428"/>
      <point x="233" y="475"/>
      <point x="300" y="475" type="curve" smooth="yes"/>
      <point x="367" y="475"/>
      <point x="407" y="428"/>
      <point x="407" y="345" type="curve" smooth="yes"/>
      <point x="407" y="262"/>
      <point x="367" y="215"/>
      <point x="300" y="215" type="curve" smooth="yes"/>
      <point x="233" y="215"/>
      <point x="193" y="262"/>
    </contour>
    <contour>
      <point x="28" y="154" type="line"/>
      <point x="109" y="73" type="line"/>
      <point x="188" y="152" type="line"/>
      <point x="107" y="233" type="line"/>
    </contour>
    <contour>
      <point x="412" y="152" type="line"/>
      <point x="491" y="73" type="line"/>
      <point x="572" y="154" type="line"/>
      <point x="493" y="233" type="line"/>
    </contour>
    <contour>
      <point x="28" y="536" type="line"/>
      <point x="107" y="457" type="line"/>
      <point x="188" y="538" type="line"/>
      <point x="109" y="617" type="line"/>
    </contour>
    <contour>
      <point x="412" y="538" type="line"/>
      <point x="493" y="457" type="line"/>
      <point x="572" y="536" type="line"/>
      <point x="491" y="617" type="line"/>
    </contour>
  </outline>
</glyph>
<glyph name="section" format="1">
  <advance width="620.0"/>
  <unicode hex="00A7"/>
  <outline>
    <contour>
      <point x="44" y="-117" type="line"/>
      <point x="106" y="-164"/>
      <point x="199" y="-197"/>
      <point x="285" y="-197" type="curve" smooth="yes"/>
      <point x="444" y="-197"/>
      <point x="535" y="-109"/>
      <point x="535" y="-10" type="curve" smooth="yes"/>
      <point x="535" y="83"/>
      <point x="464" y="141"/>
      <point x="309" y="188" type="curve" smooth="yes"/>
      <point x="190" y="224"/>
      <point x="164" y="255"/>
      <point x="164" y="294" type="curve" smooth="yes"/>
      <point x="164" y="332"/>
      <point x="205" y="368"/>
      <point x="282" y="374" type="curve"/>
      <point x="176" y="451" type="line"/>
      <point x="88" y="425"/>
      <point x="38" y="361"/>
      <point x="38" y="281" type="curve" smooth="yes"/>
      <point x="38" y="191"/>
      <point x="102" y="121"/>
      <point x="271" y="71" type="curve" smooth="yes"/>
      <point x="377" y="40"/>
      <point x="401" y="17"/>
      <point x="401" y="-16" type="curve" smooth="yes"/>
      <point x="401" y="-51"/>
      <point x="365" y="-82"/>
      <point x="296" y="-82" type="curve" smooth="yes"/>
      <point x="226" y="-82"/>
      <point x="161" y="-54"/>
      <point x="108" y="-12" type="curve"/>
    </contour>
    <contour>
      <point x="85" y="515" type="curve" smooth="yes"/>
      <point x="85" y="422"/>
      <point x="156" y="364"/>
      <point x="311" y="317" type="curve" smooth="yes"/>
      <point x="430" y="281"/>
      <point x="456" y="250"/>
      <point x="456" y="211" type="curve" smooth="yes"/>
      <point x="456" y="172"/>
      <point x="415" y="137"/>
      <point x="338" y="131" type="curve"/>
      <point x="444" y="54" type="line"/>
      <point x="532" y="80"/>
      <point x="582" y="143"/>
      <point x="582" y="223" type="curve" smooth="yes"/>
      <point x="582" y="314"/>
      <point x="518" y="383"/>
      <point x="349" y="433" type="curve" smooth="yes"/>
      <point x="243" y="465"/>
      <point x="219" y="488"/>
      <point x="219" y="521" type="curve" smooth="yes"/>
      <point x="219" y="555"/>
      <point x="255" y="586"/>
      <point x="324" y="586" type="curve" smooth="yes"/>
      <point x="394" y="586"/>
      <point x="459" y="559"/>
      <point x="512" y="516" type="curve"/>
      <point x="576" y="621" type="line"/>
      <point x="514" y="669"/>
      <point x="421" y="701"/>
      <point x="335" y="701" type="curve" smooth="yes"/>
      <point x="176" y="701"/>
      <point x="85" y="614"/>
    </contour>
  </outline>
</glyph>
<glyph name="copyright" format="1">
  <advance width="810.0"/>
  <unicode hex="00A9"/>
  <outline>
    <contour>
      <point x="405" y="-10" type="curve" smooth="yes"/>
      <point x="605" y="-10"/>
      <point x="760" y="145"/>
      <point x="760" y="345" type="curve" smooth="yes"/>
      <point x="760" y="545"/>
      <point x="605" y="700"/>
      <point x="405" y="700" type="curve" smooth="yes"/>
      <point x="205" y="700"/>
      <point x="50" y="545"/>
      <point x="50" y="345" type="curve" smooth="yes"/>
      <point x="50" y="145"/>
      <point x="205" y="-10"/>
    </contour>
    <contour>
      <point x="405" y="60" type="curve" smooth="yes"/>
      <point x="245" y="60"/>
      <point x="122" y="185"/>
      <point x="122" y="345" type="curve" smooth="yes"/>
      <point x="122" y="505"/>
      <point x="245" y="630"/>
      <point x="405" y="630" type="curve" smooth="yes"/>
      <point x="565" y="630"/>
      <point x="688" y="505"/>
      <point x="688" y="345" type="curve" smooth="yes"/>
      <point x="688" y="185"/>
      <point x="565" y="60"/>
    </contour>
    <contour>
      <point x="218" y="345" type="curve" smooth="yes"/>
      <point x="218" y="210"/>
      <point x="307" y="135"/>
      <point x="408" y="135" type="curve" smooth="yes"/>
      <point x="463" y="135"/>
      <point x="507" y="155"/>
      <point x="543" y="191" type="curve"/>
      <point x="483" y="260" type="line"/>
      <point x="464" y="240"/>
      <point x="440" y="229"/>
      <point x="411" y="229" type="curve" smooth="yes"/>
      <point x="360" y="229"/>
      <point x="320" y="273"/>
      <point x="320" y="345" type="curve" smooth="yes"/>
      <point x="320" y="417"/>
      <point x="360" y="461"/>
      <point x="411" y="461" type="curve" smooth="yes"/>
      <point x="437" y="461"/>
      <point x="460" y="452"/>
      <point x="479" y="431" type="curve"/>
      <point x="538" y="500" type="line"/>
      <point x="502" y="535"/>
      <point x="459" y="555"/>
      <point x="408" y="555" type="curve" smooth="yes"/>
      <point x="307" y="555"/>
      <point x="218" y="480"/>
    </contour>
  </outline>
</glyph>
<glyph name="guillemetleft" format="1">
  <advance width="528"/>
  <unicode hex="00AB"/>
  <outline>
    <contour>
      <point x="34" y="242" type="line"/>
      <point x="140" y="86" type="line"/>
      <point x="277" y="86" type="line"/>
      <point x="130" y="296" type="line"/>
      <point x="34" y="303" type="line"/>
    </contour>
    <contour>
      <point x="34" y="244" type="line"/>
      <point x="130" y="251" type="line"/>
      <point x="277" y="461" type="line"/>
      <point x="140" y="461" type="line"/>
      <point x="34" y="305" type="line"/>
    </contour>
    <contour>
      <point x="271" y="242" type="line"/>
      <point x="377" y="86" type="line"/>
      <point x="514" y="86" type="line"/>
      <point x="367" y="296" type="line"/>
      <point x="271" y="303" type="line"/>
    </contour>
    <contour>
      <point x="271" y="244" type="line"/>
      <point x="367" y="251" type="line"/>
      <point x="514" y="461" type="line"/>
      <point x="377" y="461" type="line"/>
      <point x="271" y="305" type="line"/>
    </contour>
  </outline>
</glyph>
<glyph name="macron" format="1">
  <advance width="600.0"/>
  <unicode hex="00AF"/>
  <outline>
    <contour>
      <point x="139" y="624" type="line"/>
      <point x="461" y="624" type="line"/>
      <point x="461" y="719" type="line"/>
      <point x="139" y="719" type="line"/>
    </contour>
    <contour>
      <point x="300" y="521" type="move" name="_top"/>
    </contour>
  </outline>
</glyph>
<glyph name="twosuperior" format="1">
  <advance width="440.0"/>
  <unicode hex="00B2"/>
  <outline>
    <contour>
      <point x="69" y="290" type="line"/>
      <point x="363" y="290" type="line"/>
      <point x="363" y="371" type="line"/>
      <point x="125" y="371" type="line"/>
      <point x="69" y="354" type="line"/>
    </contour>
    <contour>
      <point x="69" y="354" type="line"/>
      <point x="118" y="290" type="line"/>
      <point x="259" y="422" type="line" smooth="yes"/>
      <point x="320" y="480"/>
      <point x="353" y="526"/>
      <point x="353" y="577" type="curve" smooth="yes"/>
      <point x="353" y="650"/>
      <point x="292" y="701"/>
      <point x="211" y="701" type="curve" smooth="yes"/>
      <point x="152" y="701"/>
      <point x="104" y="675"/>
      <point x="59" y="632" type="curve"/>
      <point x="114" y="567" type="line"/>
      <point x="138" y="594"/>
      <point x="167" y="615"/>
      <point x="200" y="615" type="curve" smooth="yes"/>
      <point x="233" y="615"/>
      <point x="255" y="596"/>
      <point x="255" y="568" type="curve" smooth="yes"/>
      <point x="255" y="540"/>
      <point x="234" y="516"/>
      <point x="195" y="478" type="curve" smooth="yes"/>
    </contour>
  </outline>
</glyph>
<glyph name="paragraph" format="1">
  <advance width="767"/>
  <unicode hex="00B6"/>
  <outline>
    <contour>
      <point x="55" y="435" type="curve" smooth="yes"/>
      <point x="55" y="275"/>
      <point x="166" y="181"/>
      <point x="320" y="181" type="curve" smooth="yes"/>
      <point x="351" y="181" type="line"/>
      <point x="351" y="-203" type="line"/>
      <point x="468" y="-203" type="line"/>
      <point x="468" y="690" type="line"/>
      <point x="320" y="690" type="line" smooth="yes"/>
      <point x="166" y="690"/>
      <point x="55" y="595"/>
    </contour>
    <contour>
      <point x="559" y="-203" type="line"/>
      <point x="676" y="-203" type="line"/>
      <point x="676" y="690" type="line"/>
      <point x="559" y="690" type="line"/>
    </contour>
  </outline>
</glyph>
<glyph name="onesuperior" format="1">
  <advance width="440.0"/>
  <unicode hex="00B9"/>
  <outline>
    <contour>
      <point x="81" y="290" type="line"/>
      <point x="380" y="290" type="line"/>
      <point x="380" y="367" type="line"/>
      <point x="81" y="367" type="line"/>
    </contour>
    <contour>
      <point x="65" y="626" type="line"/>
      <point x="98" y="554" type="line"/>
      <point x="244" y="620" type="line"/>
      <point x="208" y="690" type="line"/>
    </contour>
    <contour>
      <point x="182" y="290" type="line"/>
      <point x="280" y="290" type="line"/>
      <point x="280" y="690" type="line"/>
      <point x="208" y="690" type="line"/>
      <point x="182" y="637" type="line"/>
    </contour>
  </outline>
</glyph>
<glyph name="ordmasculine" format="1">
  <advance width="480.0"/>
  <unicode hex="00BA"/>
  <outline>
    <contour>
      <point x="51" y="490" type="curve" smooth="yes"/>
      <point x="51" y="349"/>
      <point x="136" y="279"/>
      <point x="240" y="279" type="curve" smooth="yes"/>
      <point x="344" y="279"/>
      <point x="429" y="349"/>
      <point x="429" y="490" type="curve" smooth="yes"/>
      <point x="429" y="631"/>
      <point x="344" y="701"/>
      <point x="240" y="701" type="curve" smooth="yes"/>
      <point x="136" y="701"/>
      <point x="51" y="631"/>
    </contour>
    <contour>
      <point x="152" y="490" type="curve" smooth="yes"/>
      <point x="152" y="575"/>
      <point x="191" y="614"/>
      <point x="240" y="614" type="curve" smooth="yes"/>
      <point x="289" y="614"/>
      <point x="328" y="575"/>
      <point x="328" y="490" type="curve" smooth="yes"/>
      <point x="328" y="405"/>
      <point x="289" y="366"/>
      <point x="240" y="366" type="curve" smooth="yes"/>
      <point x="191" y="366"/>
      <point x="152" y="405"/>
    </contour>
  </outline>
</glyph>
<glyph name="guillemetright" format="1">
  <advance width="528"/>
  <unicode hex="00BB"/>
  <outline>
    <contour>
      <point x="14" y="86" type="line"/>
      <point x="151" y="86" type="line"/>
      <point x="257" y="242" type="line"/>
      <point x="257" y="303" type="line"/>
      <point x="161" y="296" type="line"/>
    </contour>
    <contour>
      <point x="14" y="461" type="line"/>
      <point x="161" y="251" type="line"/>
      <point x="257" y="244" type="line"/>
      <point x="257" y="305" type="line"/>
      <point x="151" y="461" type="line"/>
    </contour>
    <contour>
      <point x="251" y="86" type="line"/>
      <point x="387" y="86" type="line"/>
      <point x="494" y="242" type="line"/>
      <point x="494" y="303" type="line"/>
      <point x="398" y="296" type="line"/>
    </contour>
    <contour>
      <point x="251" y="461" type="line"/>
      <point x="398" y="251" type="line"/>
      <point x="494" y="244" type="line"/>
      <point x="494" y="305" type="line"/>
      <point x="387" y="461" type="line"/>
    </contour>
  </outline>
</glyph>
<glyph name="Oslash" format="1">
  <advance width="737"/>
  <unicode hex="00D8"/>
  <outline>
    <contour>
      <point x="51" y="345" type="curve" smooth="yes"/>
      <point x="51" y="118"/>
      <point x="194" y="-11"/>
      <point x="368" y="-11" type="curve" smooth="yes"/>
      <point x="543" y="-11"/>
      <point x="686" y="118"/>
      <point x="686" y="345" type="curve" smooth="yes"/>
      <point x="686" y="572"/>
      <point x="543" y="701"/>
      <point x="368" y="701" type="curve" smooth="yes"/>
      <point x="194" y="701"/>
      <point x="51" y="572"/>
    </contour>
    <contour>
      <point x="186" y="345" type="curve" smooth="yes"/>
      <point x="186" y="505"/>
      <point x="264" y="583"/>
      <point x="368" y="583" type="curve" smooth="yes"/>
      <point x="473" y="583"/>
      <point x="551" y="505"/>
      <point x="551" y="345" type="curve" smooth="yes"/>
      <point x="551" y="185"/>
      <point x="473" y="107"/>
      <point x="368" y="107" type="curve" smooth="yes"/>
      <point x="264" y="107"/>
      <point x="186" y="185"/>
    </contour>
    <contour>
      <point x="31" y="58" type="line"/>
      <point x="104" y="-11" type="line"/>
      <point x="706" y="632" type="line"/>
      <point x="632" y="701" type="line"/>
    </contour>
    <contour>
      <point x="368" y="690" type="move" name="top"/>
    </contour>
  </outline>
</glyph>
<glyph name="germandbls" format="1">
  <advance width="610"/>
  <unicode hex="00DF"/>
  <outline>
    <contour>
      <point x="81" y="0" type="line"/>
      <point x="208" y="0" type="line"/>
      <point x="208" y="514" type="line" smooth="yes"/>
      <point x="208" y="587"/>
      <point x="243" y="622"/>
      <point x="293" y="622" type="curve" smooth="yes"/>
      <point x="343" y="622"/>
      <point x="374" y="595"/>
      <point x="374" y="548" type="curve" smooth="yes"/>
      <point x="374" y="497"/>
      <point x="336" y="456"/>
      <point x="268" y="400" type="curve"/>
      <point x="268" y="298" type="line"/>
      <point x="373" y="239" type="line" smooth="yes"/>
      <point x="426" y="210"/>
      <point x="445" y="184"/>
      <point x="445" y="151" type="curve" smooth="yes"/>
      <point x="445" y="118"/>
      <point x="423" y="92"/>
      <point x="382" y="92" type="curve" smooth="yes"/>
      <point x="345" y="92"/>
      <point x="316" y="106"/>
      <point x="289" y="124" type="curve"/>
      <point x="248" y="30" type="line"/>
      <point x="277" y="12"/>
      <point x="329" y="-11"/>
      <point x="389" y="-11" type="curve" smooth="yes"/>
      <point x="496" y="-11"/>
      <point x="573" y="58"/>
      <point x="573" y="152" type="curve" smooth="yes"/>
      <point x="573" y="221"/>
      <point x="543" y="273"/>
      <point x="449" y="327" type="curve" smooth="yes"/>
      <point x="388" y="362" type="line"/>
      <point x="439" y="408"/>
      <point x="498" y="467"/>
      <point x="498" y="552" type="curve" smooth="yes"/>
      <point x="498" y="664"/>
      <point x="416" y="731"/>
      <point x="293" y="731" type="curve" smooth="yes"/>
      <point x="164" y="731"/>
      <point x="81" y="659"/>
      <point x="81" y="516" type="curve" smooth="yes"/>
    </contour>
  </outline>
</glyph>
<glyph name="ae" format="1">
  <advance width="855"/>
  <unicode hex="00E6"/>
  <outline>
    <contour>
      <point x="45" y="136" type="curve" smooth="yes"/>
      <point x="45" y="46"/>
      <point x="118" y="-11"/>
      <point x="207" y="-11" type="curve" smooth="yes"/>
      <point x="300" y="-11"/>
      <point x="373" y="40"/>
      <point x="426" y="108" type="curve"/>
      <point x="364" y="160" type="line"/>
      <point x="329" y="117"/>
      <point x="282" y="90"/>
      <point x="231" y="90" type="curve" smooth="yes"/>
      <point x="191" y="90"/>
      <point x="164" y="111"/>
      <point x="164" y="149" type="curve" smooth="yes"/>
      <point x="164" y="187"/>
      <point x="195" y="223"/>
      <point x="300" y="230" type="curve" smooth="yes"/>
      <point x="372" y="235" type="line"/>
      <point x="372" y="312" type="line"/>
      <point x="292" y="310" type="line" smooth="yes"/>
      <point x="118" y="304"/>
      <point x="45" y="229"/>
    </contour>
    <contour>
      <point x="61" y="485" type="curve"/>
      <point x="99" y="381" type="line"/>
      <point x="140" y="402"/>
      <point x="187" y="421"/>
      <point x="241" y="421" type="curve" smooth="yes"/>
      <point x="312" y="421"/>
      <point x="349" y="387"/>
      <point x="349" y="316" type="curve" smooth="yes"/>
      <point x="349" y="272" type="line"/>
      <point x="468" y="272" type="line"/>
      <point x="468" y="326" type="line" smooth="yes"/>
      <point x="468" y="462"/>
      <point x="384" y="532"/>
      <point x="259" y="532" type="curve" smooth="yes"/>
      <point x="186" y="532"/>
      <point x="111" y="510"/>
    </contour>
    <contour>
      <point x="349" y="252" type="curve" smooth="yes"/>
      <point x="349" y="87"/>
      <point x="444" y="-11"/>
      <point x="608" y="-11" type="curve" smooth="yes"/>
      <point x="675" y="-11"/>
      <point x="733" y="7"/>
      <point x="781" y="34" type="curve"/>
      <point x="739" y="130" type="line"/>
      <point x="706" y="110"/>
      <point x="662" y="96"/>
      <point x="619" y="96" type="curve" smooth="yes"/>
      <point x="528" y="96"/>
      <point x="467" y="148"/>
      <point x="467" y="258" type="curve" smooth="yes"/>
      <point x="467" y="376"/>
      <point x="516" y="430"/>
      <point x="584" y="430" type="curve" smooth="yes"/>
      <point x="647" y="430"/>
      <point x="689" y="383"/>
      <point x="689" y="270" type="curve"/>
      <point x="715" y="309" type="line"/>
      <point x="436" y="309" type="line"/>
      <point x="436" y="223" type="line"/>
      <point x="808" y="223" type="line"/>
      <point x="810" y="235"/>
      <point x="812" y="253"/>
      <point x="812" y="271" type="curve" smooth="yes"/>
      <point x="812" y="438"/>
      <point x="719" y="532"/>
      <point x="586" y="532" type="curve" smooth="yes"/>
      <point x="446" y="532"/>
      <point x="349" y="427"/>
    </contour>
    <contour>
      <point x="428" y="515" type="move" name="top"/>
    </contour>
  </outline>
</glyph>
<glyph name="divide" format="1">
  <advance width="600.0"/>
  <unicode hex="00F7"/>
  <outline>
    <contour>
      <point x="66" y="234" type="line"/>
      <point x="534" y="234" type="line"/>
      <point x="534" y="346" type="line"/>
      <point x="66" y="346" type="line"/>
    </contour>
    <contour>
      <point x="220" y="102" type="curve" smooth="yes"/>
      <point x="220" y="58"/>
      <point x="254" y="23"/>
      <point x="300" y="23" type="curve" smooth="yes"/>
      <point x="347" y="23"/>
      <point x="380" y="58"/>
      <point x="380" y="102" type="curve" smooth="yes"/>
      <point x="380" y="146"/>
      <point x="347" y="182"/>
      <point x="300" y="182" type="curve" smooth="yes"/>
      <point x="254" y="182"/>
      <point x="220" y="146"/>
    </contour>
    <contour>
      <point x="220" y="478" type="curve" smooth="yes"/>
      <point x="220" y="434"/>
      <point x="254" y="398"/>
      <point x="300" y="398" type="curve" smooth="yes"/>
      <point x="347" y="398"/>
      <point x="380" y="434"/>
      <point x="380" y="478" type="curve" smooth="yes"/>
      <point x="380" y="522"/>
      <point x="347" y="557"/>
      <point x="300" y="557" type="curve" smooth="yes"/>
      <point x="254" y="557"/>
      <point x="220" y="522"/>
    </contour>
  </outline>
</glyph>
<glyph name="oslash" format="1">
  <advance width="584.0"/>
  <unicode hex="00F8"/>
  <outline>
    <contour>
      <point x="45" y="260" type="curve" smooth="yes"/>
      <point x="45" y="89"/>
      <point x="148" y="-11"/>
      <point x="292" y="-11" type="curve" smooth="yes"/>
      <point x="436" y="-11"/>
      <point x="539" y="89"/>
      <point x="539" y="260" type="curve" smooth="yes"/>
      <point x="539" y="431"/>
      <point x="436" y="532"/>
      <point x="292" y="532" type="curve" smooth="yes"/>
      <point x="148" y="532"/>
      <point x="45" y="431"/>
    </contour>
    <contour>
      <point x="170" y="260" type="curve" smooth="yes"/>
      <point x="170" y="374"/>
      <point x="217" y="430"/>
      <point x="292" y="430" type="curve" smooth="yes"/>
      <point x="367" y="430"/>
      <point x="414" y="374"/>
      <point x="414" y="260" type="curve" smooth="yes"/>
      <point x="414" y="146"/>
      <point x="367" y="90"/>
      <point x="292" y="90" type="curve" smooth="yes"/>
      <point x="217" y="90"/>
      <point x="170" y="146"/>
    </contour>
    <contour>
      <point x="35" y="52" type="line"/>
      <point x="102" y="-11" type="line"/>
      <point x="549" y="469" type="line"/>
      <point x="482" y="532" type="line"/>
    </contour>
    <contour>
      <point x="292" y="521" type="move" name="top"/>
    </contour>
  </outline>
</glyph>
<glyph name="eogonek" format="1">
  <advance width="560"/>
  <unicode hex="0119"/>
  <outline>
    <contour>
      <point x="45" y="252" type="curve" smooth="yes"/>
      <point x="45" y="87"/>
      <point x="149" y="-11"/>
      <point x="313" y="-11" type="curve" smooth="yes"/>
      <point x="380" y="-11"/>
      <point x="438" y="7"/>
      <point x="485" y="34" type="curve"/>
      <point x="444" y="130" type="line"/>
      <point x="411" y="110"/>
      <point x="367" y="96"/>
      <point x="324" y="96" type="curve" smooth="yes"/>
      <point x="234" y="96"/>
      <point x="170" y="147"/>
      <point x="170" y="258" type="curve" smooth="yes"/>
      <point x="170" y="376"/>
      <point x="220" y="430"/>
      <point x="289" y="430" type="curve" smooth="yes"/>
      <point x="351" y="430"/>
      <point x="394" y="383"/>
      <point x="394" y="270" type="curve"/>
      <point x="420" y="309" type="line"/>
      <point x="141" y="309" type="line"/>
      <point x="141" y="223" type="line"/>
      <point x="513" y="223" type="line"/>
      <point x="514" y="235"/>
      <point x="517" y="253"/>
      <point x="517" y="271" type="curve" smooth="yes"/>
      <point x="517" y="438"/>
      <point x="424" y="532"/>
      <point x="291" y="532" type="curve" smooth="yes"/>
      <point x="149" y="532"/>
      <point x="45" y="427"/>
    </contour>
    <contour>
      <point x="298" y="-110" type="curve" smooth="yes"/>
      <point x="298" y="-164"/>
      <point x="339" y="-196"/>
      <point x="396" y="-196" type="curve" smooth="yes"/>
      <point x="431" y="-196"/>
      <point x="458" y="-185"/>
      <point x="483" y="-170" type="curve"/>
      <point x="457" y="-108" type="line"/>
      <point x="442" y="-117"/>
      <point x="427" y="-126"/>
      <point x="407" y="-126" type="curve" smooth="yes"/>
      <point x="388" y="-126"/>
      <point x="375" y="-113"/>
      <point x="375" y="-94" type="curve" smooth="yes"/>
      <point x="375" y="-62"/>
      <point x="407" y="-30"/>
      <point x="485" y="34" type="curve"/>
      <point x="365" y="0" type="line"/>
      <point x="325" y="-27"/>
      <point x="298" y="-65"/>
    </contour>
  </outline>
</glyph>
<glyph name="Hbar" format="1">
  <advance width="757"/>
  <unicode hex="0126"/>
  <outline>
    <contour>
      <point x="96" y="0" type="line"/>
      <point x="230" y="0" type="line"/>
      <point x="230" y="690" type="line"/>
      <point x="96" y="690" type="line"/>
    </contour>
    <contour>
      <point x="160" y="284" type="line"/>
      <point x="596" y="284" type="line"/>
      <point x="596" y="402" type="line"/>
      <point x="160" y="402" type="line"/>
    </contour>
    <contour>
      <point x="526" y="0" type="line"/>
      <point x="661" y="0" type="line"/>
      <point x="661" y="690" type="line"/>
      <point x="526" y="690" type="line"/>
    </contour>
    <contour>
      <point x="30" y="514" type="line"/>
      <point x="727" y="514" type="line"/>
      <point x="727" y="616" type="line"/>
      <point x="30" y="616" type="line"/>
    </contour>
  </outline>
</glyph>
<glyph name="hbar" format="1">
  <advance width="627.0"/>
  <unicode hex="0127"/>
  <outline>
    <contour>
      <point x="86" y="0" type="line"/>
      <point x="213" y="0" type="line"/>
      <point x="213" y="735" type="line"/>
      <point x="86" y="715" type="line"/>
    </contour>
    <contour>
      <point x="198" y="340" type="line"/>
      <point x="234" y="381"/>
      <point x="281" y="403"/>
      <point x="326" y="403" type="curve"/>
      <point x="383" y="403"/>
      <point x="424" y="368"/>
      <point x="424" y="291" type="curve" smooth="yes"/>
      <point x="424" y="0" type="line"/>
      <point x="551" y="0" type="line"/>
      <point x="551" y="310" type="line" smooth="yes"/>
      <point x="551" y="451"/>
      <point x="466" y="520"/>
      <point x="369" y="520" type="curve"/>
      <point x="299" y="520"/>
      <point x="240" y="481"/>
      <point x="198" y="425" type="curve"/>
    </contour>
    <contour>
      <point x="20" y="573" type="line"/>
      <point x="345" y="573" type="line"/>
      <point x="345" y="660" type="line"/>
      <point x="20" y="660" type="line"/>
    </contour>
  </outline>
</glyph>
<glyph name="dotlessi" format="1">
  <advance width="289"/>
  <unicode hex="0131"/>
  <outline>
    <contour>
      <point x="81" y="0" type="line"/>
      <point x="208" y="0" type="line"/>
      <point x="208" y="521" type="line"/>
      <point x="81" y="521" type="line"/>
    </contour>
    <contour>
      <point x="144" y="521" type="move" name="top"/>
    </contour>
  </outline>
</glyph>
<glyph name="eng" format="1">
  <advance width="622.0"/>
  <unicode hex="014B"/>
  <outline>
    <contour>
      <point x="66" y="521" type="line"/>
      <point x="74" y="474" type="line" smooth="yes"/>
      <point x="79" y="445"/>
      <point x="81" y="425"/>
      <point x="81" y="397" type="curve" smooth="yes"/>
      <point x="81" y="0" type="line"/>
      <point x="208" y="0" type="line"/>
      <point x="208" y="421" type="line"/>
      <point x="188" y="521" type="line"/>
    </contour>
    <contour>
      <point x="281" y="-181" type="line"/>
      <point x="306" y="-190"/>
      <point x="340" y="-196"/>
      <point x="369" y="-196" type="curve" smooth="yes"/>
      <point x="474" y="-196"/>
      <point x="546" y="-131"/>
      <point x="546" y="-9" type="curve" smooth="yes"/>
      <point x="546" y="322" type="line" smooth="yes"/>
      <point x="546" y="463"/>
      <point x="461" y="532"/>
      <point x="364" y="532" type="curve"/>
      <point x="294" y="532"/>
      <point x="235" y="493"/>
      <point x="193" y="437" type="curve"/>
      <point x="193" y="349" type="line"/>
      <point x="229" y="391"/>
      <point x="276" y="415"/>
      <point x="321" y="415" type="curve"/>
      <point x="378" y="415"/>
      <point x="419" y="380"/>
      <point x="419" y="303" type="curve"/>
      <point x="419" y="-2" type="line" smooth="yes"/>
      <point x="419" y="-63"/>
      <point x="393" y="-85"/>
      <point x="349" y="-85" type="curve" smooth="yes"/>
      <point x="331" y="-85"/>
      <point x="316" y="-82"/>
      <point x="297" y="-76" type="curve"/>
    </contour>
  </outline>
</glyph>
<glyph name="OE" format="1">
  <advance width="992"/>
  <unicode hex="0152"/>
  <outline>
    <contour>
      <point x="51" y="345" type="curve" smooth="yes"/>
      <point x="51" y="118"/>
      <point x="213" y="0"/>
      <point x="410" y="0" type="curve" smooth="yes"/>
      <point x="505" y="0" type="line"/>
      <point x="505" y="118" type="line"/>
      <point x="410" y="118" type="line" smooth="yes"/>
      <point x="283" y="118"/>
      <point x="188" y="188"/>
      <point x="188" y="345" type="curve" smooth="yes"/>
      <point x="188" y="502"/>
      <point x="283" y="572"/>
      <point x="410" y="572" type="curve" smooth="yes"/>
      <point x="505" y="572" type="line"/>
      <point x="505" y="690" type="line"/>
      <point x="410" y="690" type="line" smooth="yes"/>
      <point x="213" y="690"/>
      <point x="51" y="572"/>
    </contour>
    <contour>
      <point x="480" y="0" type="line"/>
      <point x="614" y="0" type="line"/>
      <point x="614" y="690" type="line"/>
      <point x="480" y="690" type="line"/>
    </contour>
    <contour>
      <point x="544" y="0" type="line"/>
      <point x="928" y="0" type="line"/>
      <point x="928" y="118" type="line"/>
      <point x="544" y="118" type="line"/>
    </contour>
    <contour>
      <point x="544" y="292" type="line"/>
      <point x="875" y="292" type="line"/>
      <point x="875" y="406" type="line"/>
      <point x="544" y="406" type="line"/>
    </contour>
    <contour>
      <point x="544" y="572" type="line"/>
      <point x="923" y="572" type="line"/>
      <point x="923" y="690" type="line"/>
      <point x="544" y="690" type="line"/>
    </contour>
  </outline>
</glyph>
<glyph name="Tbar" format="1">
  <advance width="592.0"/>
  <unicode hex="0166"/>
  <outline>
    <contour>
      <point x="32" y="572" type="line"/>
      <point x="560" y="572" type="line"/>
      <point x="560" y="690" type="line"/>
      <point x="32" y="690" type="line"/>
    </contour>
    <contour>
      <point x="229" y="0" type="line"/>
      <point x="363" y="0" type="line"/>
      <point x="363" y="690" type="line"/>
      <point x="229" y="690" type="line"/>
    </contour>
    <contour>
      <point x="85" y="264" type="line"/>
      <point x="507" y="264" type="line"/>
      <point x="507" y="376" type="line"/>
      <point x="85" y="376" type="line"/>
    </contour>
  </outline>
</glyph>
<glyph name="tbar" format="1">
  <advance width="437"/>
  <unicode hex="0167"/>
  <outline>
    <contour>
      <point x="27" y="420" type="line"/>
      <point x="388" y="420" type="line"/>
      <point x="388" y="521" type="line"/>
      <point x="27" y="521" type="line"/>
    </contour>
    <contour>
      <point x="117" y="170" type="line" smooth="yes"/>
      <point x="117" y="50"/>
      <point x="187" y="-11"/>
      <point x="290" y="-11" type="curve" smooth="yes"/>
      <point x="327" y="-11"/>
      <point x="366" y="-3"/>
      <point x="399" y="9" type="curve"/>
      <point x="383" y="118" type="line"/>
      <point x="358" y="109"/>
      <point x="335" y="104"/>
      <point x="315" y="104" type="curve" smooth="yes"/>
      <point x="267" y="104"/>
      <point x="244" y="128"/>
      <point x="244" y="183" type="curve" smooth="yes"/>
      <point x="244" y="658" type="line"/>
      <point x="117" y="638" type="line"/>
    </contour>
    <contour>
      <point x="27" y="225" type="line"/>
      <point x="388" y="225" type="line"/>
      <point x="388" y="322" type="line"/>
      <point x="27" y="322" type="line"/>
    </contour>
  </outline>
</glyph>
<glyph name="Uogonek" format="1">
  <advance width="717"/>
  <unicode hex="0172"/>
  <outline>
    <contour>
      <point x="515" y="-170" type="curve"/>
      <point x="489" y="-108" type="line"/>
      <point x="474" y="-117"/>
      <point x="459" y="-126"/>
      <point x="439" y="-126" type="curve" smooth="yes"/>
      <point x="420" y="-126"/>
      <point x="407" y="-113"/>
      <point x="407" y="-94" type="curve" smooth="yes"/>
      <point x="407" y="-62"/>
      <point x="435" y="-26"/>
      <point x="516" y="29" type="curve" smooth="yes"/>
      <point x="589" y="79"/>
      <point x="636" y="154"/>
      <point x="636" y="265" type="curve" smooth="yes"/>
      <point x="636" y="690" type="line"/>
      <point x="505" y="690" type="line"/>
      <point x="505" y="281" type="line" smooth="yes"/>
      <point x="505" y="166"/>
      <point x="445" y="110"/>
      <point x="360" y="110" type="curve" smooth="yes"/>
      <point x="275" y="110"/>
      <point x="215" y="166"/>
      <point x="215" y="281" type="curve" smooth="yes"/>
      <point x="215" y="690" type="line"/>
      <point x="81" y="690" type="line"/>
      <point x="81" y="265" type="line" smooth="yes"/>
      <point x="81" y="88"/>
      <point x="202" y="-11"/>
      <point x="358" y="-11" type="curve" smooth="yes"/>
      <point x="366" y="-11"/>
      <point x="375" y="-11"/>
      <point x="383" y="-10" type="curve"/>
      <point x="351" y="-36"/>
      <point x="330" y="-70"/>
      <point x="330" y="-110" type="curve" smooth="yes"/>
      <point x="330" y="-164"/>
      <point x="371" y="-196"/>
      <point x="428" y="-196" type="curve" smooth="yes"/>
      <point x="463" y="-196"/>
      <point x="490" y="-185"/>
    </contour>
  </outline>
</glyph>
<glyph name="Schwa" format="1">
  <advance width="717"/>
  <unicode hex="018F"/>
  <outline>
    <contour>
      <point x="51" y="341" type="curve" smooth="yes"/>
      <point x="51" y="118"/>
      <point x="190" y="-11"/>
      <point x="358" y="-11" type="curve" smooth="yes"/>
      <point x="527" y="-11"/>
      <point x="666" y="117"/>
      <point x="666" y="345" type="curve" smooth="yes"/>
      <point x="666" y="573"/>
      <point x="524" y="701"/>
      <point x="337" y="701" type="curve" smooth="yes"/>
      <point x="246" y="701"/>
      <point x="156" y="670"/>
      <point x="95" y="631" type="curve"/>
      <point x="146" y="519" type="line"/>
      <point x="189" y="548"/>
      <point x="262" y="576"/>
      <point x="325" y="576" type="curve" smooth="yes"/>
      <point x="444" y="576"/>
      <point x="528" y="503"/>
      <point x="528" y="345" type="curve" smooth="yes"/>
      <point x="528" y="187"/>
      <point x="456" y="110"/>
      <point x="358" y="110" type="curve" smooth="yes"/>
      <point x="261" y="110"/>
      <point x="188" y="188"/>
      <point x="188" y="341" type="curve"/>
      <point x="156" y="282" type="line"/>
      <point x="561" y="282" type="line"/>
      <point x="561" y="388" type="line"/>
      <point x="55" y="388" type="line"/>
      <point x="53" y="376"/>
      <point x="51" y="354"/>
    </contour>
  </outline>
</glyph>
<glyph name="Nhookleft" format="1">
  <advance width="754"/>
  <unicode hex="019D"/>
  <outline>
    <contour>
      <point x="-47" y="-181" type="line"/>
      <point x="-22" y="-190"/>
      <point x="12" y="-196"/>
      <point x="41" y="-196" type="curve" smooth="yes"/>
      <point x="147" y="-196"/>
      <point x="216" y="-131"/>
      <point x="216" y="-9" type="curve" smooth="yes"/>
      <point x="216" y="690" type="line"/>
      <point x="91" y="690" type="line"/>
      <point x="91" y="-2" type="line" smooth="yes"/>
      <point x="91" y="-63"/>
      <point x="65" y="-85"/>
      <point x="21" y="-85" type="curve" smooth="yes"/>
      <point x="3" y="-85"/>
      <point x="-12" y="-82"/>
      <point x="-31" y="-76" type="curve"/>
    </contour>
    <contour>
      <point x="142" y="690" type="line"/>
      <point x="488" y="0" type="line"/>
      <point x="618" y="0" type="line"/>
      <point x="272" y="690" type="line"/>
    </contour>
    <contour>
      <point x="538" y="0" type="line"/>
      <point x="663" y="0" type="line"/>
      <point x="663" y="690" type="line"/>
      <point x="538" y="690" type="line"/>
    </contour>
  </outline>
</glyph>
<glyph name="dotlessj" format="1">
  <advance width="289"/>
  <unicode hex="0237"/>
  <outline>
    <contour>
      <point x="-57" y="-181" type="line"/>
      <point x="-32" y="-190"/>
      <point x="2" y="-196"/>
      <point x="31" y="-196" type="curve"/>
      <point x="136" y="-196"/>
      <point x="208" y="-131"/>
      <point x="208" y="-9" type="curve" smooth="yes"/>
      <point x="208" y="521" type="line"/>
      <point x="81" y="521" type="line"/>
      <point x="81" y="-2" type="line" smooth="yes"/>
      <point x="81" y="-63"/>
      <point x="55" y="-85"/>
      <point x="11" y="-85" type="curve"/>
      <point x="-7" y="-85"/>
      <point x="-22" y="-82"/>
      <point x="-41" y="-76" type="curve"/>
    </contour>
    <contour>
      <point x="144" y="521" type="move" name="top"/>
    </contour>
  </outline>
</glyph>
<glyph name="ipa:schwa" format="1">
  <advance width="560"/>
  <unicode hex="0259"/>
  <outline>
    <contour>
      <point x="45" y="250" type="curve" smooth="yes"/>
      <point x="45" y="83"/>
      <point x="137" y="-11"/>
      <point x="270" y="-11" type="curve" smooth="yes"/>
      <point x="412" y="-11"/>
      <point x="517" y="94"/>
      <point x="517" y="269" type="curve" smooth="yes"/>
      <point x="517" y="434"/>
      <point x="413" y="532"/>
      <point x="249" y="532" type="curve" smooth="yes"/>
      <point x="182" y="532"/>
      <point x="123" y="514"/>
      <point x="76" y="487" type="curve"/>
      <point x="118" y="391" type="line"/>
      <point x="151" y="411"/>
      <point x="194" y="425"/>
      <point x="237" y="425" type="curve" smooth="yes"/>
      <point x="327" y="425"/>
      <point x="391" y="374"/>
      <point x="391" y="263" type="curve" smooth="yes"/>
      <point x="391" y="145"/>
      <point x="342" y="91"/>
      <point x="273" y="91" type="curve" smooth="yes"/>
      <point x="210" y="91"/>
      <point x="167" y="138"/>
      <point x="167" y="251" type="curve"/>
      <point x="141" y="212" type="line"/>
      <point x="421" y="212" type="line"/>
      <point x="421" y="298" type="line"/>
      <point x="49" y="298" type="line"/>
      <point x="47" y="286"/>
      <point x="45" y="268"/>
    </contour>
  </outline>
</glyph>
<glyph name="nhookleft" format="1">
  <advance width="622.0"/>
  <unicode hex="0272"/>
  <outline>
    <contour>
      <point x="-57" y="-181" type="line"/>
      <point x="-32" y="-190"/>
      <point x="2" y="-196"/>
      <point x="31" y="-196" type="curve" smooth="yes"/>
      <point x="136" y="-196"/>
      <point x="208" y="-131"/>
      <point x="208" y="-9" type="curve" smooth="yes"/>
      <point x="208" y="421" type="line"/>
      <point x="188" y="521" type="line"/>
      <point x="66" y="521" type="line"/>
      <point x="74" y="474" type="line" smooth="yes"/>
      <point x="79" y="445"/>
      <point x="81" y="425"/>
      <point x="81" y="397" type="curve"/>
      <point x="81" y="-2" type="line" smooth="yes"/>
      <point x="81" y="-63"/>
      <point x="55" y="-85"/>
      <point x="11" y="-85" type="curve" smooth="yes"/>
      <point x="-7" y="-85"/>
      <point x="-22" y="-82"/>
      <point x="-41" y="-76" type="curve"/>
    </contour>
    <contour>
      <point x="193" y="349" type="line"/>
      <point x="229" y="391"/>
      <point x="276" y="415"/>
      <point x="321" y="415" type="curve"/>
      <point x="378" y="415"/>
      <point x="419" y="380"/>
      <point x="419" y="303" type="curve" smooth="yes"/>
      <point x="419" y="0" type="line"/>
      <point x="546" y="0" type="line"/>
      <point x="546" y="322" type="line" smooth="yes"/>
      <point x="546" y="463"/>
      <point x="461" y="532"/>
      <point x="364" y="532" type="curve"/>
      <point x="294" y="532"/>
      <point x="235" y="493"/>
      <point x="193" y="437" type="curve"/>
    </contour>
  </outline>
</glyph>
<glyph name="caron" format="1">
  <advance width="600.0"/>
  <unicode hex="02C7"/>
  <outline>
    <contour>
      <point x="140" y="746" type="line"/>
      <point x="236" y="596" type="line"/>
      <point x="361" y="596" type="line"/>
      <point x="243" y="746" type="line"/>
    </contour>
    <contour>
      <point x="239" y="596" type="line"/>
      <point x="364" y="596" type="line"/>
      <point x="460" y="746" type="line"/>
      <point x="357" y="746" type="line"/>
    </contour>
    <contour>
      <point x="300" y="521" type="move" name="_top"/>
    </contour>
  </outline>
</glyph>
<glyph name="breve" format="1">
  <advance width="600.0"/>
  <unicode hex="02D8"/>
  <outline>
    <contour>
      <point x="154" y="746" type="line"/>
      <point x="161" y="647"/>
      <point x="218" y="590"/>
      <point x="300" y="590" type="curve"/>
      <point x="382" y="590"/>
      <point x="439" y="647"/>
      <point x="446" y="746" type="curve"/>
      <point x="367" y="746" type="line"/>
      <point x="361" y="702"/>
      <point x="338" y="677"/>
      <point x="300" y="677" type="curve"/>
      <point x="262" y="677"/>
      <point x="239" y="702"/>
      <point x="233" y="746" type="curve"/>
    </contour>
    <contour>
      <point x="300" y="521" type="move" name="_top"/>
    </contour>
  </outline>
</glyph>
<glyph name="tilde" format="1">
  <advance width="600.0"/>
  <unicode hex="02DC"/>
  <outline>
    <contour>
      <point x="148" y="605" type="curve"/>
      <point x="214" y="605" type="line"/>
      <point x="218" y="637"/>
      <point x="230" y="646"/>
      <point x="244" y="646" type="curve"/>
      <point x="274" y="646"/>
      <point x="304" y="600"/>
      <point x="357" y="600" type="curve"/>
      <point x="413" y="600"/>
      <point x="447" y="648"/>
      <point x="452" y="732" type="curve"/>
      <point x="386" y="732" type="line"/>
      <point x="382" y="700"/>
      <point x="370" y="691"/>
      <point x="356" y="691" type="curve"/>
      <point x="326" y="691"/>
      <point x="296" y="737"/>
      <point x="243" y="737" type="curve"/>
      <point x="187" y="737"/>
      <point x="153" y="689"/>
    </contour>
    <contour>
      <point x="300" y="521" type="move" name="_top"/>
    </contour>
  </outline>
</glyph>
<glyph name="Delta" format="1">
  <advance width="648.0"/>
  <unicode hex="0394"/>
  <outline>
    <contour>
      <point x="8" y="0" type="line"/>
      <point x="148" y="0" type="line"/>
      <point x="339" y="560" type="line"/>
      <point x="331" y="690" type="line"/>
      <point x="262" y="690" type="line"/>
    </contour>
    <contour>
      <point x="102" y="0" type="line"/>
      <point x="546" y="0" type="line"/>
      <point x="546" y="118" type="line"/>
      <point x="102" y="118" type="line"/>
    </contour>
    <contour>
      <point x="305" y="560" type="line"/>
      <point x="496" y="0" type="line"/>
      <point x="640" y="0" type="line"/>
      <point x="386" y="690" type="line"/>
      <point x="309" y="690" type="line"/>
    </contour>
  </outline>
</glyph>
<glyph name="pi" format="1">
  <advance width="617"/>
  <unicode hex="03C0"/>
  <outline>
    <contour>
      <point x="40" y="417" type="line"/>
      <point x="572" y="417" type="line"/>
      <point x="572" y="521" type="line"/>
      <point x="40" y="521" type="line"/>
    </contour>
    <contour>
      <point x="106" y="0" type="line"/>
      <point x="233" y="0" type="line"/>
      <point x="233" y="521" type="line"/>
      <point x="106" y="521" type="line"/>
    </contour>
    <contour>
      <point x="379" y="123" type="line" smooth="yes"/>
      <point x="379" y="20"/>
      <point x="426" y="-11"/>
      <point x="491" y="-11" type="curve" smooth="yes"/>
      <point x="510" y="-11"/>
      <point x="532" y="-7"/>
      <point x="549" y="0" type="curve"/>
      <point x="549" y="103" type="line"/>
      <point x="542" y="100"/>
      <point x="536" y="99"/>
      <point x="530" y="99" type="curve" smooth="yes"/>
      <point x="515" y="99"/>
      <point x="506" y="107"/>
      <point x="506" y="128" type="curve" smooth="yes"/>
      <point x="506" y="521" type="line"/>
      <point x="379" y="521" type="line"/>
    </contour>
  </outline>
</glyph>
<glyph name="endash" format="1">
  <advance width="622.0"/>
  <unicode hex="2013"/>
  <outline>
    <contour>
      <point x="57" y="228" type="line"/>
      <point x="565" y="228" type="line"/>
      <point x="565" y="328" type="line"/>
      <point x="57" y="328" type="line"/>
    </contour>
  </outline>
</glyph>
<glyph name="emdash" format="1">
  <advance width="913"/>
  <unicode hex="2014"/>
  <outline>
    <contour>
      <point x="57" y="228" type="line"/>
      <point x="856" y="228" type="line"/>
      <point x="856" y="328" type="line"/>
      <point x="57" y="328" type="line"/>
    </contour>
  </outline>
</glyph>
<glyph name="quoteleft" format="1">
  <advance width="256"/>
  <unicode hex="2018"/>
  <outline>
    <contour>
      <point x="197" y="720" type="line"/>
      <point x="122" y="720" type="line"/>
      <point x="72" y="590" type="line" smooth="yes"/>
      <point x="55" y="547"/>
      <point x="46" y="521"/>
      <point x="46" y="487" type="curve" smooth="yes"/>
      <point x="46" y="436"/>
      <point x="80" y="402"/>
      <point x="128" y="402" type="curve" smooth="yes"/>
      <point x="175" y="402"/>
      <point x="209" y="436"/>
      <point x="209" y="482" type="curve" smooth="yes"/>
      <point x="209" y="523"/>
      <point x="185" y="549"/>
      <point x="155" y="558" type="curve"/>
    </contour>
  </outline>
</glyph>
<glyph name="quoteright" format="1">
  <advance width="256"/>
  <unicode hex="2019"/>
  <outline>
    <contour>
      <point x="59" y="413" type="line"/>
      <point x="134" y="413" type="line"/>
      <point x="184" y="543" type="line" smooth="yes"/>
      <point x="200" y="586"/>
      <point x="209" y="612"/>
      <point x="209" y="646" type="curve" smooth="yes"/>
      <point x="209" y="697"/>
      <point x="176" y="731"/>
      <point x="128" y="731" type="curve" smooth="yes"/>
      <point x="81" y="731"/>
      <point x="46" y="697"/>
      <point x="46" y="651" type="curve" smooth="yes"/>
      <point x="46" y="610"/>
      <point x="70" y="584"/>
      <point x="100" y="575" type="curve"/>
    </contour>
  </outline>
</glyph>
<glyph name="dagger" format="1">
  <advance width="465"/>
  <unicode hex="2020"/>
  <outline>
    <contour>
      <point x="174" y="-185" type="line"/>
      <point x="291" y="-185" type="line"/>
      <point x="291" y="720" type="line"/>
      <point x="174" y="720" type="line"/>
    </contour>
    <contour>
      <point x="30" y="421" type="line"/>
      <point x="435" y="421" type="line"/>
      <point x="435" y="521" type="line"/>
      <point x="30" y="521" type="line"/>
    </contour>
  </outline>
</glyph>
<glyph name="daggerdbl" format="1">
  <advance width="465"/>
  <unicode hex="2021"/>
  <outline>
    <contour>
      <point x="174" y="-185" type="line"/>
      <point x="291" y="-185" type="line"/>
      <point x="291" y="720" type="line"/>
      <point x="174" y="720" type="line"/>
    </contour>
    <contour>
      <point x="30" y="421" type="line"/>
      <point x="435" y="421" type="line"/>
      <point x="435" y="521" type="line"/>
      <point x="30" y="521" type="line"/>
    </contour>
    <contour>
      <point x="30" y="14" type="line"/>
      <point x="435" y="14" type="line"/>
      <point x="435" y="114" type="line"/>
      <point x="30" y="114" type="line"/>
    </contour>
  </outline>
</glyph>
<glyph name="perthousand" format="1">
  <advance width="1377"/>
  <unicode hex="2030"/>
  <outline>
    <contour>
      <point x="72" y="518" type="curve" smooth="yes"/>
      <point x="72" y="408"/>
      <point x="150" y="335"/>
      <point x="248" y="335" type="curve" smooth="yes"/>
      <point x="346" y="335"/>
      <point x="424" y="408"/>
      <point x="424" y="518" type="curve" smooth="yes"/>
      <point x="424" y="628"/>
      <point x="346" y="701"/>
      <point x="248" y="701" type="curve" smooth="yes"/>
      <point x="150" y="701"/>
      <point x="72" y="628"/>
    </contour>
    <contour>
      <point x="170" y="518" type="curve" smooth="yes"/>
      <point x="170" y="579"/>
      <point x="204" y="615"/>
      <point x="248" y="615" type="curve" smooth="yes"/>
      <point x="291" y="615"/>
      <point x="326" y="579"/>
      <point x="326" y="518" type="curve" smooth="yes"/>
      <point x="326" y="457"/>
      <point x="291" y="421"/>
      <point x="248" y="421" type="curve" smooth="yes"/>
      <point x="204" y="421"/>
      <point x="170" y="457"/>
    </contour>
    <contour>
      <point x="200" y="0" type="line"/>
      <point x="323" y="0" type="line"/>
      <point x="773" y="690" type="line"/>
      <point x="650" y="690" type="line"/>
    </contour>
    <contour>
      <point x="549" y="172" type="curve" smooth="yes"/>
      <point x="549" y="62"/>
      <point x="626" y="-11"/>
      <point x="725" y="-11" type="curve" smooth="yes"/>
      <point x="823" y="-11"/>
      <point x="900" y="62"/>
      <point x="900" y="172" type="curve" smooth="yes"/>
      <point x="900" y="282"/>
      <point x="823" y="355"/>
      <point x="725" y="355" type="curve" smooth="yes"/>
      <point x="626" y="355"/>
      <point x="549" y="282"/>
    </contour>
    <contour>
      <point x="647" y="172" type="curve" smooth="yes"/>
      <point x="647" y="233"/>
      <point x="681" y="269"/>
      <point x="725" y="269" type="curve" smooth="yes"/>
      <point x="768" y="269"/>
      <point x="803" y="233"/>
      <point x="803" y="172" type="curve" smooth="yes"/>
      <point x="803" y="111"/>
      <point x="768" y="75"/>
      <point x="725" y="75" type="curve" smooth="yes"/>
      <point x="681" y="75"/>
      <point x="647" y="111"/>
    </contour>
    <contour>
      <point x="954" y="172" type="curve" smooth="yes"/>
      <point x="954" y="62"/>
      <point x="1031" y="-11"/>
      <point x="1129" y="-11" type="curve" smooth="yes"/>
      <point x="1228" y="-11"/>
      <point x="1305" y="62"/>
      <point x="1305" y="172" type="curve" smooth="yes"/>
      <point x="1305" y="282"/>
      <point x="1228" y="355"/>
      <point x="1129" y="355" type="curve" smooth="yes"/>
      <point x="1031" y="355"/>
      <point x="954" y="282"/>
    </contour>
    <contour>
      <point x="1051" y="172" type="curve" smooth="yes"/>
      <point x="1051" y="233"/>
      <point x="1086" y="269"/>
      <point x="1129" y="269" type="curve" smooth="yes"/>
      <point x="1173" y="269"/>
      <point x="1207" y="233"/>
      <point x="1207" y="172" type="curve" smooth="yes"/>
      <point x="1207" y="111"/>
      <point x="1173" y="75"/>
      <point x="1129" y="75" type="curve" smooth="yes"/>
      <point x="1086" y="75"/>
      <point x="1051" y="111"/>
    </contour>
  </outline>
</glyph>
<glyph name="guilsinglleft" format="1">
  <advance width="308.0"/>
  <unicode hex="2039"/>
  <outline>
    <contour>
      <point x="39" y="242" type="line"/>
      <point x="145" y="86" type="line"/>
      <point x="282" y="86" type="line"/>
      <point x="135" y="296" type="line"/>
      <point x="39" y="303" type="line"/>
    </contour>
    <contour>
      <point x="39" y="244" type="line"/>
      <point x="135" y="251" type="line"/>
      <point x="282" y="461" type="line"/>
      <point x="145" y="461" type="line"/>
      <point x="39" y="305" type="line"/>
    </contour>
  </outline>
</glyph>
<glyph name="litre" format="1">
  <advance width="500.0"/>
  <unicode hex="2113"/>
  <outline>
    <contour>
      <point x="108" y="170" type="line" smooth="yes"/>
      <point x="108" y="50"/>
      <point x="178" y="-11"/>
      <point x="281" y="-11" type="curve" smooth="yes"/>
      <point x="318" y="-11"/>
      <point x="357" y="-3"/>
      <point x="390" y="9" type="curve"/>
      <point x="374" y="118" type="line"/>
      <point x="349" y="109"/>
      <point x="326" y="104"/>
      <point x="306" y="104" type="curve" smooth="yes"/>
      <point x="258" y="104"/>
      <point x="235" y="128"/>
      <point x="235" y="183" type="curve" smooth="yes"/>
      <point x="235" y="543" type="line" smooth="yes"/>
      <point x="235" y="592"/>
      <point x="252" y="628"/>
      <point x="287" y="628" type="curve" smooth="yes"/>
      <point x="322" y="628"/>
      <point x="339" y="592"/>
      <point x="339" y="543" type="curve" smooth="yes"/>
      <point x="339" y="380"/>
      <point x="204" y="308"/>
      <point x="28" y="244" type="curve"/>
      <point x="64" y="148" type="line"/>
      <point x="256" y="208"/>
      <point x="460" y="316"/>
      <point x="460" y="547" type="curve" smooth="yes"/>
      <point x="460" y="656"/>
      <point x="398" y="731"/>
      <point x="287" y="731" type="curve" smooth="yes"/>
      <point x="176" y="731"/>
      <point x="108" y="656"/>
      <point x="108" y="547" type="curve" smooth="yes"/>
    </contour>
  </outline>
</glyph>
<glyph name="trademark" format="1">
  <advance width="932.0"/>
  <unicode hex="2122"/>
  <outline>
    <contour>
      <point x="34" y="601" type="line"/>
      <point x="360" y="601" type="line"/>
      <point x="360" y="690" type="line"/>
      <point x="34" y="690" type="line"/>
    </contour>
    <contour>
      <point x="148" y="290" type="line"/>
      <point x="246" y="290" type="line"/>
      <point x="246" y="690" type="line"/>
      <point x="148" y="690" type="line"/>
    </contour>
    <contour>
      <point x="428" y="290" type="line"/>
      <point x="518" y="290" type="line"/>
      <point x="518" y="690" type="line"/>
      <point x="428" y="690" type="line"/>
    </contour>
    <contour>
      <point x="484" y="690" type="line"/>
      <point x="594" y="369" type="line"/>
      <point x="659" y="369" type="line"/>
      <point x="659" y="426" type="line"/>
      <point x="569" y="690" type="line"/>
    </contour>
    <contour>
      <point x="616" y="426" type="line"/>
      <point x="616" y="369" type="line"/>
      <point x="681" y="369" type="line"/>
      <point x="791" y="690" type="line"/>
      <point x="706" y="690" type="line"/>
    </contour>
    <contour>
      <point x="757" y="290" type="line"/>
      <point x="846" y="290" type="line"/>
      <point x="846" y="690" type="line"/>
      <point x="757" y="690" type="line"/>
    </contour>
  </outline>
</glyph>
<glyph name="partialdiff" format="1">
  <advance width="640.0"/>
  <unicode hex="2202"/>
  <outline>
    <contour>
      <point x="177" y="480"/>
      <point x="54" y="360"/>
      <point x="54" y="200" type="curve" smooth="yes"/>
      <point x="54" y="70"/>
      <point x="136" y="-11"/>
      <point x="250" y="-11" type="curve" smooth="yes"/>
      <point x="416" y="-11"/>
      <point x="551" y="140"/>
      <point x="551" y="390" type="curve" smooth="yes"/>
      <point x="551" y="560"/>
      <point x="474" y="730"/>
      <point x="300" y="730" type="curve" smooth="yes"/>
      <point x="260" y="730"/>
      <point x="220" y="724"/>
      <point x="190" y="715" type="curve"/>
      <point x="200" y="605" type="line"/>
      <point x="220" y="612"/>
      <point x="250" y="620"/>
      <point x="280" y="620" type="curve" smooth="yes"/>
      <point x="383" y="620"/>
      <point x="427" y="514"/>
      <point x="427" y="390" type="curve" smooth="yes"/>
      <point x="427" y="212"/>
      <point x="352" y="94"/>
      <point x="266" y="94" type="curve" smooth="yes"/>
      <point x="215" y="94"/>
      <point x="178" y="128"/>
      <point x="178" y="206" type="curve" smooth="yes"/>
      <point x="178" y="309"/>
      <point x="241" y="376"/>
      <point x="324" y="376" type="curve" smooth="yes"/>
      <point x="387" y="376"/>
      <point x="438" y="339"/>
      <point x="456" y="280" type="curve"/>
      <point x="471" y="380" type="line"/>
      <point x="451" y="430"/>
      <point x="410" y="480"/>
      <point x="318" y="480" type="curve" smooth="yes"/>
    </contour>
  </outline>
</glyph>
<glyph name="summation" format="1">
  <advance width="660.0"/>
  <unicode hex="2211"/>
  <outline>
    <contour>
      <point x="90" y="-185" type="line"/>
      <point x="590" y="-185" type="line"/>
      <point x="590" y="-67" type="line"/>
      <point x="140" y="-67" type="line"/>
      <point x="90" y="-97" type="line"/>
    </contour>
    <contour>
      <point x="219" y="-115" type="line"/>
      <point x="469" y="260" type="line"/>
      <point x="328" y="260" type="line"/>
      <point x="90" y="-97" type="line"/>
    </contour>
    <contour>
      <point x="328" y="250" type="line"/>
      <point x="469" y="260" type="line"/>
      <point x="219" y="630" type="line"/>
      <point x="90" y="602" type="line"/>
    </contour>
    <contour>
      <point x="90" y="602" type="line"/>
      <point x="140" y="572" type="line"/>
      <point x="590" y="572" type="line"/>
      <point x="590" y="690" type="line"/>
      <point x="90" y="690" type="line"/>
    </contour>
  </outline>
</glyph>
<glyph name="radical" format="1">
  <advance width="724.0"/>
  <unicode hex="221A"/>
  <outline>
    <contour>
      <point x="100" y="342" type="line"/>
      <point x="301" y="-185" type="line"/>
      <point x="382" y="-185" type="line"/>
      <point x="382" y="-95" type="line"/>
      <point x="235" y="342" type="line"/>
    </contour>
    <contour>
      <point x="326" y="-95" type="line"/>
      <point x="327" y="-185" type="line"/>
      <point x="402" y="-185" type="line"/>
      <point x="734" y="690" type="line"/>
      <point x="597" y="690" type="line"/>
    </contour>
    <contour>
      <point x="20" y="226" type="line"/>
      <point x="202" y="226" type="line"/>
      <point x="202" y="342" type="line"/>
      <point x="20" y="342" type="line"/>
    </contour>
  </outline>
</glyph>
<glyph name="infinity" format="1">
  <advance width="660.0"/>
  <unicode hex="221E"/>
  <outline>
    <contour>
      <point x="38" y="290" type="curve" smooth="yes"/>
      <point x="38" y="173"/>
      <point x="111" y="96"/>
      <point x="202" y="96" type="curve" smooth="yes"/>
      <point x="276" y="96"/>
      <point x="334" y="140"/>
      <point x="378" y="274" type="curve" smooth="yes"/>
      <point x="404" y="352"/>
      <point x="431" y="383"/>
      <point x="465" y="383" type="curve" smooth="yes"/>
      <point x="498" y="383"/>
      <point x="527" y="354"/>
      <point x="527" y="290" type="curve" smooth="yes"/>
      <point x="527" y="235"/>
      <point x="498" y="197"/>
      <point x="458" y="197" type="curve" smooth="yes"/>
      <point x="416" y="197"/>
      <point x="381" y="235"/>
      <point x="370" y="300" type="curve"/>
      <point x="328" y="250" type="line"/>
      <point x="342" y="149"/>
      <point x="392" y="96"/>
      <point x="464" y="96" type="curve" smooth="yes"/>
      <point x="555" y="96"/>
      <point x="622" y="175"/>
      <point x="622" y="290" type="curve" smooth="yes"/>
      <point x="622" y="407"/>
      <point x="549" y="484"/>
      <point x="458" y="484" type="curve" smooth="yes"/>
      <point x="384" y="484"/>
      <point x="326" y="439"/>
      <point x="282" y="306" type="curve" smooth="yes"/>
      <point x="256" y="228"/>
      <point x="229" y="197"/>
      <point x="195" y="197" type="curve" smooth="yes"/>
      <point x="162" y="197"/>
      <point x="133" y="226"/>
      <point x="133" y="290" type="curve" smooth="yes"/>
      <point x="133" y="345"/>
      <point x="162" y="383"/>
      <point x="202" y="383" type="curve" smooth="yes"/>
      <point x="244" y="383"/>
      <point x="279" y="345"/>
      <point x="290" y="280" type="curve"/>
      <point x="332" y="330" type="line"/>
      <point x="318" y="431"/>
      <point x="268" y="484"/>
      <point x="196" y="484" type="curve" smooth="yes"/>
      <point x="105" y="484"/>
      <point x="38" y="405"/>
    </contour>
  </outline>
</glyph>
<glyph name="integral" format="1">
  <advance width="440.0"/>
  <unicode hex="222B"/>
  <outline>
    <contour>
      <point x="3" y="-179" type="line"/>
      <point x="31" y="-190"/>
      <point x="67" y="-196"/>
      <point x="97" y="-196" type="curve"/>
      <point x="206" y="-196"/>
      <point x="276" y="-124"/>
      <point x="276" y="-6" type="curve" smooth="yes"/>
      <point x="276" y="541" type="line" smooth="yes"/>
      <point x="276" y="598"/>
      <point x="299" y="626"/>
      <point x="348" y="626" type="curve"/>
      <point x="368" y="626"/>
      <point x="388" y="622"/>
      <point x="407" y="616" type="curve"/>
      <point x="423" y="714" type="line"/>
      <point x="395" y="725"/>
      <point x="359" y="731"/>
      <point x="329" y="731" type="curve"/>
      <point x="220" y="731"/>
      <point x="150" y="659"/>
      <point x="150" y="541" type="curve" smooth="yes"/>
      <point x="150" y="-6" type="line" smooth="yes"/>
      <point x="150" y="-63"/>
      <point x="127" y="-91"/>
      <point x="78" y="-91" type="curve"/>
      <point x="58" y="-91"/>
      <point x="38" y="-87"/>
      <point x="19" y="-81" type="curve"/>
    </contour>
  </outline>
</glyph>
<glyph name="lessequal" format="1">
  <advance width="600.0"/>
  <unicode hex="2264"/>
  <outline>
    <contour>
      <point x="70" y="62" type="line"/>
      <point x="505" y="62" type="line"/>
      <point x="505" y="172" type="line"/>
      <point x="70" y="172" type="line"/>
    </contour>
    <contour>
      <point x="70" y="312" type="line"/>
      <point x="505" y="169" type="line"/>
      <point x="505" y="291" type="line"/>
      <point x="168" y="386" type="line"/>
      <point x="70" y="386" type="line"/>
    </contour>
    <contour>
      <point x="70" y="356" type="line"/>
      <point x="168" y="356" type="line"/>
      <point x="505" y="450" type="line"/>
      <point x="505" y="568" type="line"/>
      <point x="70" y="426" type="line"/>
    </contour>
  </outline>
</glyph>
<glyph name=".notdef" format="1">
  <advance width="600.0"/>
  <outline>
    <contour>
      <point x="88" y="-185" type="line"/>
      <point x="205" y="-185" type="line"/>
      <point x="205" y="690" type="line"/>
      <point x="88" y="690" type="line"/>
    </contour>
    <contour>
      <point x="107" y="-185" type="line"/>
      <point x="493" y="-185" type="line"/>
      <point x="493" y="-83" type="line"/>
      <point x="107" y="-83" type="line"/>
    </contour>
    <contour>
      <point x="107" y="588" type="line"/>
      <point x="493" y="588" type="line"/>
      <point x="493" y="690" type="line"/>
      <point x="107" y="690" type="line"/>
    </contour>
    <contour>
      <point x="395" y="-185" type="line"/>
      <point x="512" y="-185" type="line"/>
      <point x="512" y="690" type="line"/>
      <point x="395" y="690" type="line"/>
    </contour>
  </outline>
</glyph>
<glyph name="aogonek.alt" format="1">
  <advance width="556"/>
  <outline>
    <contour>
      <point x="45" y="136" type="curve"/>
      <point x="45" y="46"/>
      <point x="114" y="-11"/>
      <point x="195" y="-11" type="curve"/>
      <point x="266" y="-11"/>
      <point x="329" y="27"/>
      <point x="364" y="81" type="curve"/>
      <point x="364" y="161" type="line"/>
      <point x="326" y="117"/>
      <point x="277" y="90"/>
      <point x="227" y="90" type="curve"/>
      <point x="189" y="90"/>
      <point x="164" y="111"/>
      <point x="164" y="149" type="curve"/>
      <point x="164" y="187"/>
      <point x="195" y="223"/>
      <point x="300" y="230" type="curve" smooth="yes"/>
      <point x="372" y="235" type="line"/>
      <point x="372" y="312" type="line"/>
      <point x="292" y="310" type="line" smooth="yes"/>
      <point x="118" y="304"/>
      <point x="45" y="229"/>
    </contour>
    <contour>
      <point x="61" y="485" type="curve"/>
      <point x="98" y="383" type="line"/>
      <point x="139" y="404"/>
      <point x="186" y="422"/>
      <point x="241" y="422" type="curve"/>
      <point x="312" y="422"/>
      <point x="349" y="387"/>
      <point x="349" y="316" type="curve" smooth="yes"/>
      <point x="349" y="132" type="line"/>
      <point x="355" y="88" type="line"/>
      <point x="361" y="17"/>
      <point x="407" y="-11"/>
      <point x="461" y="-11" type="curve"/>
      <point x="480" y="-11"/>
      <point x="502" y="-7"/>
      <point x="518" y="0" type="curve"/>
      <point x="518" y="103" type="line"/>
      <point x="512" y="100"/>
      <point x="506" y="99"/>
      <point x="499" y="99" type="curve"/>
      <point x="484" y="99"/>
      <point x="475" y="107"/>
      <point x="475" y="128" type="curve" smooth="yes"/>
      <point x="475" y="326" type="line" smooth="yes"/>
      <point x="475" y="462"/>
      <point x="385" y="532"/>
      <point x="259" y="532" type="curve"/>
      <point x="186" y="532"/>
      <point x="111" y="510"/>
    </contour>
    <contour>
      <point x="347" y="-110" type="curve" smooth="yes"/>
      <point x="347" y="-164"/>
      <point x="388" y="-196"/>
      <point x="446" y="-196" type="curve" smooth="yes"/>
      <point x="480" y="-196"/>
      <point x="508" y="-185"/>
      <point x="532" y="-170" type="curve"/>
      <point x="506" y="-108" type="line"/>
      <point x="491" y="-117"/>
      <point x="476" y="-126"/>
      <point x="457" y="-126" type="curve" smooth="yes"/>
      <point x="437" y="-126"/>
      <point x="425" y="-113"/>
      <point x="425" y="-94" type="curve" smooth="yes"/>
      <point x="425" y="-62"/>
      <point x="455" y="-30"/>
      <point x="518" y="0" type="curve"/>
      <point x="414" y="0" type="line"/>
      <point x="374" y="-27"/>
      <point x="347" y="-65"/>
    </contour>
  </outline>
</glyph>
<glyph name="breve.cap" format="1">
  <advance width="600.0"/>
  <outline>
    <contour>
      <point x="154" y="885" type="line"/>
      <point x="161" y="796"/>
      <point x="215" y="744"/>
      <point x="300" y="744" type="curve"/>
      <point x="385" y="744"/>
      <point x="439" y="796"/>
      <point x="446" y="885" type="curve"/>
      <point x="367" y="885" type="line"/>
      <point x="362" y="850"/>
      <point x="340" y="826"/>
      <point x="300" y="826" type="curve"/>
      <point x="260" y="826"/>
      <point x="238" y="850"/>
      <point x="233" y="885" type="curve"/>
    </contour>
    <contour>
      <point x="300" y="690" type="move" name="_top"/>
    </contour>
  </outline>
</glyph>
<glyph name="caron.alt" format="1">
  <advance width="600.0"/>
  <outline>
    <contour>
      <point x="257" y="531" type="line"/>
      <point x="357" y="531" type="line"/>
      <point x="409" y="731" type="line"/>
      <point x="291" y="731" type="line"/>
    </contour>
    <contour>
      <point x="300" y="720" type="move" name="_caron.alt"/>
    </contour>
  </outline>
</glyph>
<glyph name="commaaccent.alt" format="1">
  <advance width="600.0"/>
  <outline>
    <contour>
      <point x="229" y="685" type="curve" smooth="yes"/>
      <point x="229" y="641"/>
      <point x="257" y="611"/>
      <point x="300" y="611" type="curve" smooth="yes"/>
      <point x="342" y="611"/>
      <point x="371" y="641"/>
      <point x="371" y="681" type="curve" smooth="yes"/>
      <point x="371" y="717"/>
      <point x="349" y="740"/>
      <point x="322" y="748" type="curve"/>
      <point x="353" y="867" type="line"/>
      <point x="286" y="867" type="line"/>
      <point x="252" y="777" type="line" smooth="yes"/>
      <point x="238" y="741"/>
      <point x="229" y="717"/>
    </contour>
    <contour>
      <point x="300" y="521" type="move" name="_top"/>
    </contour>
  </outline>
</glyph>
<glyph name="dieresis.cap" format="1">
  <advance width="600.0"/>
  <outline>
    <contour>
      <point x="120" y="825" type="curve" smooth="yes"/>
      <point x="120" y="785"/>
      <point x="148" y="757"/>
      <point x="189" y="757" type="curve" smooth="yes"/>
      <point x="231" y="757"/>
      <point x="258" y="785"/>
      <point x="258" y="825" type="curve" smooth="yes"/>
      <point x="258" y="865"/>
      <point x="231" y="893"/>
      <point x="189" y="893" type="curve" smooth="yes"/>
      <point x="148" y="893"/>
      <point x="120" y="865"/>
    </contour>
    <contour>
      <point x="342" y="825" type="curve" smooth="yes"/>
      <point x="342" y="785"/>
      <point x="370" y="757"/>
      <point x="411" y="757" type="curve" smooth="yes"/>
      <point x="453" y="757"/>
      <point x="480" y="785"/>
      <point x="480" y="825" type="curve" smooth="yes"/>
      <point x="480" y="865"/>
      <point x="453" y="893"/>
      <point x="411" y="893" type="curve" smooth="yes"/>
      <point x="370" y="893"/>
      <point x="342" y="865"/>
    </contour>
    <contour>
      <point x="300" y="690" type="move" name="_top"/>
    </contour>
  </outline>
</glyph>
<glyph name="dotaccent.cap" format="1">
  <advance width="600.0"/>
  <outline>
    <contour>
      <point x="229" y="825" type="curve" smooth="yes"/>
      <point x="229" y="784"/>
      <point x="258" y="755"/>
      <point x="300" y="755" type="curve" smooth="yes"/>
      <point x="342" y="755"/>
      <point x="371" y="784"/>
      <point x="371" y="825" type="curve" smooth="yes"/>
      <point x="371" y="866"/>
      <point x="342" y="895"/>
      <point x="300" y="895" type="curve" smooth="yes"/>
      <point x="258" y="895"/>
      <point x="229" y="866"/>
    </contour>
    <contour>
      <point x="300" y="690" type="move" name="_top"/>
    </contour>
  </outline>
</glyph>
<glyph name="dotbelow" format="1">
  <advance width="600.0"/>
  <outline>
    <component base="dotaccent" yOffset="-817"/>
    <contour>
      <point x="300" y="0" type="move" name="_bottom"/>
    </contour>
  </outline>
</glyph>
<glyph name="hungarumlaut.cap" format="1">
  <advance width="600.0"/>
  <outline>
    <contour>
      <point x="149" y="750" type="line"/>
      <point x="241" y="750" type="line"/>
      <point x="347" y="885" type="line"/>
      <point x="219" y="885" type="line"/>
    </contour>
    <contour>
      <point x="339" y="750" type="line"/>
      <point x="431" y="750" type="line"/>
      <point x="548" y="885" type="line"/>
      <point x="419" y="885" type="line"/>
    </contour>
    <contour>
      <point x="300" y="690" type="move" name="_top"/>
    </contour>
  </outline>
</glyph>
<glyph name="one.pl" format="1">
  <advance width="450.0"/>
  <outline>
    <contour>
      <point x="22" y="601" type="line"/>
      <point x="64" y="500" type="line"/>
      <point x="261" y="584" type="line"/>
      <point x="229" y="690" type="line"/>
    </contour>
    <contour>
      <point x="187" y="0" type="line"/>
      <point x="322" y="0" type="line"/>
      <point x="322" y="690" type="line"/>
      <point x="229" y="690" type="line"/>
      <point x="187" y="637" type="line"/>
    </contour>
  </outline>
</glyph>
<glyph name="seven.pl" format="1">
  <advance width="600.0"/>
  <outline>
    <contour>
      <point x="48" y="564" type="line"/>
      <point x="474" y="564" type="line"/>
      <point x="523" y="601" type="line"/>
      <point x="523" y="690" type="line"/>
      <point x="48" y="690" type="line"/>
    </contour>
    <contour>
      <point x="142" y="0" type="line"/>
      <point x="290" y="0" type="line"/>
      <point x="523" y="601" type="line"/>
      <point x="428" y="690" type="line"/>
    </contour>
  </outline>
</glyph>
<glyph name="tilde.cap" format="1">
  <advance width="600.0"/>
  <outline>
    <contour>
      <point x="133" y="761" type="curve"/>
      <point x="199" y="761" type="line"/>
      <point x="204" y="793"/>
      <point x="219" y="803"/>
      <point x="237" y="803" type="curve" smooth="yes"/>
      <point x="269" y="803"/>
      <point x="310" y="756"/>
      <point x="364" y="756" type="curve" smooth="yes"/>
      <point x="423" y="756"/>
      <point x="461" y="805"/>
      <point x="467" y="885" type="curve"/>
      <point x="401" y="885" type="line"/>
      <point x="396" y="853"/>
      <point x="381" y="843"/>
      <point x="363" y="843" type="curve" smooth="yes"/>
      <point x="331" y="843"/>
      <point x="290" y="890"/>
      <point x="236" y="890" type="curve" smooth="yes"/>
      <point x="177" y="890"/>
      <point x="139" y="841"/>
    </contour>
    <contour>
      <point x="300" y="690" type="move" name="_top"/>
    </contour>
  </outline>
</glyph>
<glyph name="u.alt" format="1">
  <advance width="617"/>
  <outline>
    <contour>
      <point x="76" y="199" type="line" smooth="yes"/>
      <point x="76" y="58"/>
      <point x="159" y="-11"/>
      <point x="255" y="-11" type="curve"/>
      <point x="325" y="-11"/>
      <point x="382" y="28"/>
      <point x="424" y="84" type="curve"/>
      <point x="424" y="172" type="line"/>
      <point x="388" y="130"/>
      <point x="343" y="106"/>
      <point x="298" y="106" type="curve"/>
      <point x="241" y="106"/>
      <point x="203" y="141"/>
      <point x="203" y="218" type="curve" smooth="yes"/>
      <point x="203" y="521" type="line"/>
      <point x="76" y="521" type="line"/>
    </contour>
    <contour>
      <point x="409" y="132" type="line"/>
      <point x="418" y="88" type="line"/>
      <point x="424" y="17"/>
      <point x="467" y="-11"/>
      <point x="521" y="-11" type="curve"/>
      <point x="540" y="-11"/>
      <point x="562" y="-7"/>
      <point x="579" y="0" type="curve"/>
      <point x="579" y="103" type="line"/>
      <point x="572" y="100"/>
      <point x="566" y="99"/>
      <point x="560" y="99" type="curve"/>
      <point x="545" y="99"/>
      <point x="536" y="107"/>
      <point x="536" y="128" type="curve" smooth="yes"/>
      <point x="536" y="521" type="line"/>
      <point x="409" y="521" type="line"/>
    </contour>
    <contour>
      <point x="306" y="521" type="move" name="top"/>
    </contour>
    <contour>
      <point x="475" y="0" type="move" name="ogonek"/>
    </contour>
    <contour>
      <point x="306" y="0" type="move" name="bottom"/>
    </contour>
  </outline>
</glyph>
<glyph name="uogonek.alt" format="1">
  <advance width="617"/>
  <outline>
    <contour>
      <point x="76" y="199" type="line" smooth="yes"/>
      <point x="76" y="58"/>
      <point x="159" y="-11"/>
      <point x="255" y="-11" type="curve"/>
      <point x="325" y="-11"/>
      <point x="382" y="28"/>
      <point x="424" y="84" type="curve"/>
      <point x="424" y="172" type="line"/>
      <point x="388" y="130"/>
      <point x="343" y="106"/>
      <point x="298" y="106" type="curve"/>
      <point x="241" y="106"/>
      <point x="203" y="141"/>
      <point x="203" y="218" type="curve" smooth="yes"/>
      <point x="203" y="521" type="line"/>
      <point x="76" y="521" type="line"/>
    </contour>
    <contour>
      <point x="409" y="132" type="line"/>
      <point x="418" y="88" type="line"/>
      <point x="424" y="17"/>
      <point x="467" y="-11"/>
      <point x="521" y="-11" type="curve"/>
      <point x="540" y="-11"/>
      <point x="562" y="-7"/>
      <point x="579" y="0" type="curve"/>
      <point x="579" y="103" type="line"/>
      <point x="572" y="100"/>
      <point x="566" y="99"/>
      <point x="560" y="99" type="curve"/>
      <point x="545" y="99"/>
      <point x="536" y="107"/>
      <point x="536" y="128" type="curve" smooth="yes"/>
      <point x="536" y="521" type="line"/>
      <point x="409" y="521" type="line"/>
    </contour>
    <contour>
      <point x="408" y="-110" type="curve" smooth="yes"/>
      <point x="408" y="-164"/>
      <point x="448" y="-196"/>
      <point x="506" y="-196" type="curve" smooth="yes"/>
      <point x="541" y="-196"/>
      <point x="568" y="-185"/>
      <point x="593" y="-170" type="curve"/>
      <point x="567" y="-108" type="line"/>
      <point x="552" y="-117"/>
      <point x="537" y="-126"/>
      <point x="517" y="-126" type="curve" smooth="yes"/>
      <point x="498" y="-126"/>
      <point x="485" y="-113"/>
      <point x="485" y="-94" type="curve" smooth="yes"/>
      <point x="485" y="-62"/>
      <point x="515" y="-30"/>
      <point x="579" y="0" type="curve"/>
      <point x="475" y="0" type="line"/>
      <point x="435" y="-27"/>
      <point x="408" y="-65"/>
    </contour>
  </outline>
</glyph>
